<svg width="300.000000" height="148.000000" viewBox="0 0 300 148" fill="none" xmlns="http://www.w3.org/2000/svg" xmlns:xlink="http://www.w3.org/1999/xlink">
	<desc>
			Created with Pixso.
	</desc>
	<defs>
		<clipPath id="clip1_263">
			<rect id="svg-1077665151_22540" width="300.000000" height="148.000000" transform="translate(-0.500000 -0.600586)" fill="white" fill-opacity="0"/>
		</clipPath>
	</defs>
	<rect id="svg-1077665151_22540" width="300.000000" height="148.000000" transform="translate(-0.500000 -0.600586)" fill="#FFFFFF" fill-opacity="0"/>
	<g clip-path="url(#clip1_263)">
		<path id="Vector" d="M127.61 17.7L274.75 17.7C282.66 17.7 289.07 24.11 289.07 32.02L289.07 47.93C289.07 55.84 282.66 62.25 274.75 62.25L127.61 62.25C119.7 62.25 113.29 55.84 113.29 47.93L113.29 32.02C113.29 24.11 119.7 17.7 127.61 17.7Z" fill="#05AA53" fill-opacity="1.000000" fill-rule="evenodd"/>
		<path id="Vector" d="M123.98 36L123.98 27.03L127.41 27.03C129.06 27.03 130.07 27.89 130.07 29.26L130.07 29.27C130.07 30.2 129.38 31.04 128.52 31.2L128.52 31.3C129.74 31.45 130.52 32.29 130.52 33.47L130.52 33.49C130.52 35.06 129.39 36 127.48 36L123.98 36ZM127.18 28.02L125.1 28.02L125.1 30.89L126.89 30.89C128.25 30.89 128.94 30.41 128.94 29.46L128.94 29.45C128.94 28.54 128.29 28.02 127.18 28.02ZM127.21 31.86L125.1 31.86L125.1 35.01L127.31 35.01C128.66 35.01 129.37 34.46 129.37 33.43L129.37 33.42C129.37 32.39 128.64 31.86 127.21 31.86ZM134.71 36.11C132.79 36.11 131.64 34.77 131.64 32.67L131.64 32.66C131.64 30.59 132.82 29.18 134.64 29.18C136.46 29.18 137.57 30.53 137.57 32.53L137.57 32.96L132.74 32.96C132.78 34.34 133.54 35.15 134.73 35.15C135.64 35.15 136.2 34.72 136.38 34.32L136.41 34.26L137.49 34.26L137.48 34.31C137.25 35.22 136.29 36.11 134.71 36.11ZM134.63 30.14C133.64 30.14 132.88 30.82 132.76 32.09L136.47 32.09C136.36 30.77 135.62 30.14 134.63 30.14ZM141.75 36.11C139.87 36.11 138.67 34.75 138.67 32.63L138.67 32.61C138.67 30.53 139.87 29.18 141.74 29.18C143.37 29.18 144.35 30.12 144.55 31.31L144.55 31.35L143.48 31.35L143.47 31.33C143.3 30.67 142.71 30.13 141.74 30.13C140.54 30.13 139.78 31.1 139.78 32.61L139.78 32.63C139.78 34.17 140.55 35.16 141.74 35.16C142.64 35.16 143.22 34.76 143.47 34.01L143.48 33.98L144.55 33.97L144.53 34.04C144.26 35.25 143.36 36.11 141.75 36.11ZM148.65 36.11C146.74 36.11 145.56 34.8 145.56 32.65L145.56 32.64C145.56 30.49 146.74 29.18 148.65 29.18C150.56 29.18 151.74 30.49 151.74 32.64L151.74 32.65C151.74 34.8 150.56 36.11 148.65 36.11ZM148.65 35.16C149.92 35.16 150.63 34.23 150.63 32.65L150.63 32.64C150.63 31.05 149.92 30.13 148.65 30.13C147.38 30.13 146.67 31.05 146.67 32.64L146.67 32.65C146.67 34.23 147.38 35.16 148.65 35.16ZM153.18 36L153.18 29.3L154.26 29.3L154.26 30.31L154.36 30.31C154.66 29.59 155.29 29.18 156.17 29.18C157.08 29.18 157.71 29.66 158.02 30.35L158.12 30.35C158.48 29.64 159.25 29.18 160.17 29.18C161.54 29.18 162.3 29.96 162.3 31.37L162.3 36L161.22 36L161.22 31.61C161.22 30.63 160.77 30.13 159.82 30.13C158.89 30.13 158.28 30.84 158.28 31.69L158.28 36L157.19 36L157.19 31.45C157.19 30.65 156.65 30.13 155.8 30.13C154.92 30.13 154.26 30.9 154.26 31.84L154.26 36L153.18 36ZM164.59 28C164.39 28 164.2 27.92 164.06 27.78C163.92 27.64 163.84 27.45 163.84 27.26C163.84 27.06 163.92 26.87 164.06 26.73C164.2 26.59 164.39 26.51 164.59 26.51C164.79 26.51 164.98 26.59 165.12 26.73C165.26 26.87 165.34 27.06 165.34 27.26C165.34 27.45 165.26 27.64 165.12 27.78C164.98 27.92 164.79 28 164.59 28ZM164.04 36L164.04 29.3L165.12 29.3L165.12 36L164.04 36ZM166.92 36L166.92 29.3L168.01 29.3L168.01 30.3L168.11 30.3C168.44 29.59 169.07 29.18 170.06 29.18C171.56 29.18 172.4 30.07 172.4 31.66L172.4 36L171.32 36L171.32 31.92C171.32 30.71 170.82 30.13 169.75 30.13C168.68 30.13 168.01 30.86 168.01 32.03L168.01 36L166.92 36ZM176.88 38.36C175.27 38.36 174.23 37.63 174.07 36.53L174.08 36.53L175.2 36.53L175.2 36.53C175.32 37.04 175.92 37.4 176.88 37.4C178.08 37.4 178.8 36.84 178.8 35.85L178.8 34.49L178.7 34.49C178.27 35.23 177.52 35.65 176.6 35.65C174.86 35.65 173.79 34.31 173.79 32.43L173.79 32.42C173.79 30.54 174.87 29.18 176.62 29.18C177.57 29.18 178.3 29.64 178.71 30.4L178.78 30.4L178.78 29.3L179.87 29.3L179.87 35.9C179.87 37.4 178.71 38.36 176.88 38.36ZM176.83 34.69C178.08 34.69 178.82 33.76 178.82 32.43L178.82 32.42C178.82 31.09 178.07 30.13 176.83 30.13C175.59 30.13 174.89 31.09 174.89 32.42L174.89 32.43C174.89 33.76 175.59 34.69 176.83 34.69ZM185.56 28C185.36 28 185.17 27.92 185.03 27.78C184.89 27.64 184.81 27.45 184.81 27.26C184.81 27.06 184.89 26.87 185.03 26.73C185.17 26.59 185.36 26.51 185.56 26.51C185.75 26.51 185.94 26.59 186.08 26.73C186.22 26.87 186.3 27.06 186.3 27.26C186.3 27.45 186.22 27.64 186.08 27.78C185.94 27.92 185.75 28 185.56 28ZM185.01 36L185.01 29.3L186.09 29.3L186.09 36L185.01 36ZM190.19 36.11C188.7 36.11 187.67 35.39 187.55 34.29L188.66 34.29C188.84 34.85 189.37 35.21 190.23 35.21C191.13 35.21 191.77 34.78 191.77 34.18L191.77 34.16C191.77 33.71 191.43 33.39 190.6 33.19L189.56 32.94C188.31 32.65 187.74 32.1 187.74 31.14L187.74 31.13C187.74 30.02 188.81 29.18 190.23 29.18C191.64 29.18 192.62 29.88 192.76 30.97L191.7 30.97C191.56 30.45 191.04 30.08 190.23 30.08C189.43 30.08 188.85 30.49 188.85 31.08L188.85 31.09C188.85 31.55 189.18 31.83 189.97 32.02L191.01 32.27C192.27 32.58 192.88 33.12 192.88 34.08L192.88 34.09C192.88 35.29 191.71 36.11 190.19 36.11ZM199.5 36.11C198.22 36.11 197.26 35.34 197.26 34.13L197.26 34.11C197.26 32.92 198.14 32.23 199.7 32.14L201.62 32.02L201.62 31.41C201.62 30.58 201.12 30.13 200.12 30.13C199.32 30.13 198.79 30.43 198.62 30.96L198.61 30.97L197.53 30.97L197.53 30.94C197.71 29.89 198.73 29.18 200.16 29.18C201.79 29.18 202.71 30.02 202.71 31.41L202.71 36L201.62 36L201.62 35.01L201.53 35.01C201.1 35.72 200.4 36.11 199.5 36.11ZM198.37 34.1C198.37 34.78 198.95 35.18 199.72 35.18C200.82 35.18 201.62 34.45 201.62 33.5L201.62 32.89L199.83 33C198.81 33.06 198.37 33.42 198.37 34.09L198.37 34.1ZM210.55 38.36C208.93 38.36 207.9 37.63 207.73 36.53L207.74 36.53L208.86 36.53L208.87 36.53C208.99 37.04 209.58 37.4 210.55 37.4C211.75 37.4 212.46 36.84 212.46 35.85L212.46 34.49L212.36 34.49C211.94 35.23 211.18 35.65 210.26 35.65C208.53 35.65 207.45 34.31 207.45 32.43L207.45 32.42C207.45 30.54 208.53 29.18 210.29 29.18C211.23 29.18 211.96 29.64 212.38 30.4L212.45 30.4L212.45 29.3L213.53 29.3L213.53 35.9C213.53 37.4 212.38 38.36 210.55 38.36L210.55 38.36ZM210.5 34.69C211.74 34.69 212.49 33.76 212.49 32.43L212.49 32.42C212.49 31.09 211.73 30.13 210.5 30.13C209.25 30.13 208.56 31.09 208.56 32.42L208.56 32.43C208.56 33.76 209.25 34.69 210.5 34.69ZM215.31 36L215.31 29.3L216.39 29.3L216.39 30.29L216.49 30.29C216.74 29.59 217.37 29.18 218.28 29.18C218.48 29.18 218.71 29.2 218.82 29.22L218.82 30.27C218.6 30.23 218.38 30.21 218.15 30.21C217.12 30.21 216.39 30.86 216.39 31.84L216.39 36L215.31 36ZM222.47 36.11C220.55 36.11 219.4 34.77 219.4 32.67L219.4 32.66C219.4 30.59 220.58 29.18 222.4 29.18C224.22 29.18 225.33 30.53 225.33 32.53L225.33 32.96L220.5 32.96C220.53 34.34 221.3 35.15 222.49 35.15C223.4 35.15 223.96 34.72 224.14 34.32L224.16 34.26L225.25 34.26L225.23 34.31C225 35.22 224.05 36.11 222.47 36.11ZM222.39 30.14C221.4 30.14 220.64 30.82 220.52 32.09L224.23 32.09C224.11 30.77 223.38 30.14 222.39 30.14ZM228.61 36.11C227.33 36.11 226.37 35.34 226.37 34.13L226.37 34.11C226.37 32.92 227.25 32.23 228.81 32.14L230.73 32.02L230.73 31.41C230.73 30.58 230.23 30.13 229.23 30.13C228.43 30.13 227.9 30.43 227.72 30.96L227.72 30.97L226.64 30.97L226.64 30.94C226.82 29.89 227.84 29.18 229.27 29.18C230.9 29.18 231.81 30.02 231.81 31.41L231.81 36L230.73 36L230.73 35.01L230.63 35.01C230.21 35.72 229.51 36.11 228.61 36.11ZM227.47 34.1C227.47 34.78 228.05 35.18 228.83 35.18C229.93 35.18 230.73 34.45 230.73 33.5L230.73 32.89L228.94 33C227.92 33.06 227.47 33.42 227.47 34.09L227.47 34.1ZM235.93 36.05C234.55 36.05 233.98 35.54 233.98 34.26L233.98 30.19L232.92 30.19L232.92 29.3L233.98 29.3L233.98 27.56L235.09 27.56L235.09 29.3L236.56 29.3L236.56 30.19L235.09 30.19L235.09 33.98C235.09 34.77 235.37 35.09 236.06 35.09C236.26 35.09 236.36 35.08 236.56 35.06L236.56 35.98C236.35 36.02 236.14 36.04 235.93 36.05ZM243.12 36.11C241.85 36.11 240.88 35.34 240.88 34.13L240.88 34.11C240.88 32.92 241.77 32.23 243.33 32.14L245.25 32.02L245.25 31.41C245.25 30.58 244.74 30.13 243.74 30.13C242.94 30.13 242.41 30.43 242.24 30.96L242.23 30.97L241.15 30.97L241.16 30.94C241.33 29.89 242.35 29.18 243.78 29.18C245.42 29.18 246.33 30.02 246.33 31.41L246.33 36L245.25 36L245.25 35.01L245.15 35.01C244.73 35.72 244.02 36.11 243.12 36.11ZM241.99 34.1C241.99 34.78 242.57 35.18 243.35 35.18C244.45 35.18 245.25 34.45 245.25 33.5L245.25 32.89L243.46 33C242.44 33.06 241.99 33.42 241.99 34.09L241.99 34.1ZM248.07 38.23L248.07 29.3L249.15 29.3L249.15 30.36L249.25 30.36C249.66 29.62 250.4 29.18 251.34 29.18C253.03 29.18 254.15 30.55 254.15 32.64L254.15 32.65C254.15 34.75 253.04 36.11 251.34 36.11C250.42 36.11 249.62 35.65 249.25 34.94L249.15 34.94L249.15 38.23L248.07 38.23ZM251.09 35.16C252.31 35.16 253.04 34.21 253.04 32.65L253.04 32.64C253.04 31.08 252.31 30.13 251.09 30.13C249.87 30.13 249.12 31.09 249.12 32.64L249.12 32.65C249.12 34.2 249.87 35.16 251.09 35.16ZM255.6 38.23L255.6 29.3L256.68 29.3L256.68 30.36L256.78 30.36C257.19 29.62 257.94 29.18 258.87 29.18C260.57 29.18 261.68 30.55 261.68 32.64L261.68 32.65C261.68 34.75 260.57 36.11 258.87 36.11C257.95 36.11 257.15 35.65 256.78 34.94L256.68 34.94L256.68 38.23L255.6 38.23ZM258.62 35.16C259.85 35.16 260.57 34.21 260.57 32.65L260.57 32.64C260.57 31.08 259.85 30.13 258.62 30.13C257.4 30.13 256.66 31.09 256.66 32.64L256.66 32.65C256.66 34.2 257.4 35.16 258.62 35.16ZM127.18 53.62C126.24 53.62 125.5 53.18 125.09 52.43L124.99 52.43L124.99 53.5L123.91 53.5L123.91 44.14L124.99 44.14L124.99 47.86L125.09 47.86C125.45 47.14 126.26 46.68 127.18 46.68C128.88 46.68 129.99 48.04 129.99 50.14L129.99 50.16C129.99 52.25 128.87 53.62 127.18 53.62ZM126.93 52.66C128.15 52.66 128.88 51.72 128.88 50.16L128.88 50.14C128.88 48.59 128.15 47.64 126.93 47.64C125.71 47.64 124.96 48.6 124.96 50.14L124.96 50.16C124.96 51.71 125.71 52.66 126.93 52.66ZM133.67 53.62C132.15 53.62 131.37 52.72 131.37 51.14L131.37 46.8L132.45 46.8L132.45 50.88C132.45 52.08 132.88 52.66 133.95 52.66C135.13 52.66 135.76 51.94 135.76 50.77L135.76 46.8L136.84 46.8L136.84 53.5L135.76 53.5L135.76 52.5L135.66 52.5C135.33 53.22 134.65 53.62 133.67 53.62ZM141 53.55C139.62 53.55 139.05 53.04 139.05 51.76L139.05 47.7L137.99 47.7L137.99 46.8L139.05 46.8L139.05 45.07L140.17 45.07L140.17 46.8L141.63 46.8L141.63 47.7L140.17 47.7L140.17 51.49C140.17 52.28 140.44 52.59 141.14 52.59C141.33 52.59 141.43 52.59 141.63 52.57L141.63 53.49C141.42 53.53 141.22 53.55 141 53.55ZM146.49 53.5L146.49 44.53L147.61 44.53L147.61 53.5L146.49 53.5ZM152.86 53.5L152.86 46.8L153.94 46.8L153.94 47.81L154.04 47.81C154.38 47.1 155.01 46.68 156 46.68C157.5 46.68 158.34 47.57 158.34 49.16L158.34 53.5L157.26 53.5L157.26 49.42C157.26 48.22 156.76 47.64 155.69 47.64C154.62 47.64 153.94 48.36 153.94 49.54L153.94 53.5L152.86 53.5ZM162.79 53.62C160.88 53.62 159.72 52.28 159.72 50.18L159.72 50.17C159.72 48.1 160.91 46.68 162.73 46.68C164.55 46.68 165.65 48.04 165.65 50.04L165.65 50.46L160.83 50.46C160.86 51.85 161.63 52.66 162.82 52.66C163.73 52.66 164.29 52.23 164.47 51.82L164.49 51.77L165.57 51.77L165.56 51.82C165.33 52.72 164.37 53.62 162.79 53.62ZM162.72 47.65C161.73 47.65 160.97 48.32 160.85 49.6L164.55 49.6C164.44 48.27 163.71 47.65 162.72 47.65ZM169.83 53.62C167.91 53.62 166.76 52.28 166.76 50.18L166.76 50.17C166.76 48.1 167.94 46.68 169.76 46.68C171.58 46.68 172.69 48.04 172.69 50.04L172.69 50.46L167.86 50.46C167.9 51.85 168.66 52.66 169.85 52.66C170.76 52.66 171.32 52.23 171.5 51.82L171.53 51.77L172.61 51.77L172.6 51.82C172.37 52.72 171.41 53.62 169.83 53.62ZM169.75 47.65C168.76 47.65 168 48.32 167.88 49.6L171.59 49.6C171.48 48.27 170.74 47.65 169.75 47.65ZM176.6 53.62C174.91 53.62 173.79 52.25 173.79 50.16L173.79 50.14C173.79 48.04 174.9 46.68 176.6 46.68C177.52 46.68 178.33 47.14 178.69 47.86L178.79 47.86L178.79 44.14L179.87 44.14L179.87 53.5L178.79 53.5L178.79 52.43L178.69 52.43C178.28 53.18 177.54 53.62 176.6 53.62ZM176.85 52.66C178.07 52.66 178.82 51.71 178.82 50.16L178.82 50.14C178.82 48.6 178.07 47.64 176.85 47.64C175.63 47.64 174.9 48.58 174.9 50.14L174.9 50.16C174.9 51.72 175.63 52.66 176.85 52.66ZM186.89 53.62C185.62 53.62 184.66 52.85 184.66 51.63L184.66 51.62C184.66 50.43 185.54 49.74 187.1 49.64L189.02 49.52L189.02 48.91C189.02 48.09 188.52 47.64 187.52 47.64C186.71 47.64 186.18 47.94 186.01 48.46L186 48.48L184.92 48.48L184.93 48.44C185.1 47.39 186.12 46.68 187.55 46.68C189.19 46.68 190.1 47.52 190.1 48.91L190.1 53.5L189.02 53.5L189.02 52.51L188.92 52.51C188.5 53.23 187.8 53.62 186.89 53.62ZM185.76 51.61C185.76 52.28 186.34 52.68 187.12 52.68C188.22 52.68 189.02 51.96 189.02 51L189.02 50.39L187.23 50.51C186.21 50.57 185.76 50.93 185.76 51.59L185.76 51.61ZM195.63 53.5L195.63 47.7L194.52 47.7L194.52 46.8L195.63 46.8L195.63 46.06C195.63 44.72 196.3 44.08 197.58 44.08C197.84 44.08 198.07 44.1 198.3 44.14L198.3 45C198.13 44.98 197.96 44.97 197.79 44.97C197.02 44.97 196.71 45.35 196.71 46.09L196.71 46.8L198.23 46.8L198.23 47.7L196.71 47.7L196.71 53.5L195.63 53.5ZM202.01 53.62C200.09 53.62 198.93 52.28 198.93 50.18L198.93 50.17C198.93 48.1 200.12 46.68 201.94 46.68C203.76 46.68 204.86 48.04 204.86 50.04L204.86 50.46L200.04 50.46C200.07 51.85 200.84 52.66 202.03 52.66C202.94 52.66 203.5 52.23 203.68 51.82L203.7 51.77L204.78 51.77L204.77 51.82C204.54 52.72 203.58 53.62 202.01 53.62ZM201.93 47.65C200.94 47.65 200.18 48.32 200.06 49.6L203.76 49.6C203.65 48.27 202.92 47.65 201.93 47.65ZM208.15 53.62C206.87 53.62 205.91 52.85 205.91 51.63L205.91 51.62C205.91 50.43 206.79 49.74 208.35 49.64L210.27 49.52L210.27 48.91C210.27 48.09 209.77 47.64 208.77 47.64C207.97 47.64 207.44 47.94 207.26 48.46L207.26 48.48L206.17 48.48L206.18 48.44C206.35 47.39 207.37 46.68 208.8 46.68C210.44 46.68 211.35 47.52 211.35 48.91L211.35 53.5L210.27 53.5L210.27 52.51L210.17 52.51C209.75 53.23 209.05 53.62 208.15 53.62ZM207.01 51.61C207.01 52.28 207.59 52.68 208.37 52.68C209.47 52.68 210.27 51.96 210.27 51L210.27 50.39L208.48 50.51C207.46 50.57 207.01 50.93 207.01 51.59L207.01 51.61ZM215.47 53.55C214.09 53.55 213.51 53.04 213.51 51.76L213.51 47.7L212.46 47.7L212.46 46.8L213.51 46.8L213.51 45.07L214.63 45.07L214.63 46.8L216.1 46.8L216.1 47.7L214.63 47.7L214.63 51.49C214.63 52.28 214.91 52.59 215.6 52.59C215.8 52.59 215.9 52.59 216.1 52.57L216.1 53.49C215.89 53.53 215.68 53.55 215.47 53.55ZM219.72 53.62C218.2 53.62 217.42 52.72 217.42 51.14L217.42 46.8L218.5 46.8L218.5 50.88C218.5 52.08 218.93 52.66 220 52.66C221.18 52.66 221.81 51.94 221.81 50.77L221.81 46.8L222.89 46.8L222.89 53.5L221.81 53.5L221.81 52.5L221.71 52.5C221.38 53.22 220.7 53.62 219.72 53.62ZM224.67 53.5L224.67 46.8L225.76 46.8L225.76 47.8L225.86 47.8C226.11 47.09 226.74 46.68 227.65 46.68C227.85 46.68 228.08 46.71 228.19 46.73L228.19 47.78C227.97 47.74 227.74 47.72 227.52 47.72C226.49 47.72 225.76 48.37 225.76 49.35L225.76 53.5L224.67 53.5ZM231.83 53.62C229.92 53.62 228.76 52.28 228.76 50.18L228.76 50.17C228.76 48.1 229.94 46.68 231.77 46.68C233.59 46.68 234.69 48.04 234.69 50.04L234.69 50.46L229.87 50.46C229.9 51.85 230.66 52.66 231.86 52.66C232.77 52.66 233.33 52.23 233.51 51.82L233.53 51.77L234.61 51.77L234.6 51.82C234.37 52.72 233.41 53.62 231.83 53.62ZM231.76 47.65C230.76 47.65 230.01 48.32 229.89 49.6L233.59 49.6C233.48 48.27 232.75 47.65 231.76 47.65ZM237.02 53.56C236.58 53.56 236.21 53.2 236.21 52.76C236.21 52.31 236.58 51.95 237.02 51.95C237.46 51.95 237.82 52.31 237.82 52.76C237.82 53.2 237.46 53.56 237.02 53.56Z" fill="#FFFFFF" fill-opacity="1.000000" fill-rule="nonzero"/>
		<path id="Vector" d="M293.04 62.4C288.9 63.04 284.82 60.76 283.49 59.3C284.86 56.04 276.42 48.12 281.99 48.12C283.28 48.12 284.38 44.75 289.06 47.28C289.08 48.31 289.06 51.85 289.06 52.46C289.06 60.81 293.84 61.92 293.04 62.4Z" fill="#05AA53" fill-opacity="1.000000" fill-rule="nonzero"/>
		<path id="Vector" d="M242.18 76.58L243.14 76.58L243.14 74.21L244.49 74.21L245.74 76.58L246.85 76.58L245.47 74.06C246.22 73.8 246.66 73.13 246.66 72.3L246.66 72.29C246.66 71.15 245.88 70.41 244.61 70.41L242.18 70.41L242.18 76.58ZM243.14 73.43L243.14 71.21L244.49 71.21C245.23 71.21 245.68 71.63 245.68 72.32L245.68 72.33C245.68 73.03 245.25 73.43 244.52 73.43L243.14 73.43ZM249.78 76.67C250.97 76.67 251.61 75.98 251.77 75.37L251.78 75.33L250.88 75.34L250.87 75.37C250.75 75.61 250.4 75.91 249.81 75.91C249.04 75.91 248.55 75.39 248.54 74.5L251.83 74.5L251.83 74.18C251.83 72.78 251.03 71.85 249.74 71.85C248.44 71.85 247.6 72.82 247.6 74.27L247.6 74.27C247.6 75.74 248.42 76.67 249.78 76.67ZM249.74 72.61C250.37 72.61 250.84 73.01 250.91 73.84L248.55 73.84C248.63 73.04 249.11 72.61 249.74 72.61ZM254.26 76.65C254.87 76.65 255.36 76.39 255.63 75.92L255.7 75.92L255.7 76.58L256.62 76.58L256.62 73.4C256.62 72.43 255.97 71.85 254.8 71.85C253.74 71.85 253.01 72.36 252.9 73.12L252.9 73.15L253.79 73.15L253.79 73.13C253.91 72.8 254.24 72.61 254.76 72.61C255.38 72.61 255.7 72.89 255.7 73.4L255.7 73.81L254.45 73.88C253.34 73.95 252.72 74.44 252.72 75.27L252.72 75.27C252.72 76.12 253.37 76.65 254.26 76.65ZM253.64 75.24L253.64 75.23C253.64 74.81 253.93 74.58 254.57 74.54L255.7 74.47L255.7 74.86C255.7 75.46 255.2 75.91 254.5 75.91C254 75.91 253.64 75.66 253.64 75.24ZM259.68 76.65C260.33 76.65 260.83 76.36 261.1 75.85L261.18 75.85L261.18 76.58L262.1 76.58L262.1 70.12L261.18 70.12L261.18 72.67L261.1 72.67C260.86 72.17 260.31 71.86 259.68 71.86C258.5 71.86 257.75 72.78 257.75 74.25L257.75 74.26C257.75 75.72 258.51 76.65 259.68 76.65ZM259.94 75.86C259.16 75.86 258.7 75.26 258.7 74.26L258.7 74.25C258.7 73.26 259.16 72.65 259.94 72.65C260.71 72.65 261.19 73.26 261.19 74.25L261.19 74.26C261.19 75.25 260.72 75.86 259.94 75.86ZM267.58 76.58L268.35 76.58L268.35 70.41L267.58 70.41L265.94 71.59L265.94 72.4L267.51 71.27L267.58 71.27L267.58 76.58ZM272.25 76.72C273.61 76.72 274.43 75.48 274.43 73.5L274.43 73.49C274.43 71.5 273.61 70.27 272.25 70.27C270.88 70.27 270.07 71.51 270.07 73.49L270.07 73.5C270.07 75.48 270.88 76.72 272.25 76.72ZM272.25 76.05C271.36 76.05 270.84 75.07 270.84 73.5L270.84 73.49C270.84 71.91 271.36 70.94 272.25 70.94C273.13 70.94 273.66 71.91 273.66 73.49L273.66 73.5C273.66 75.07 273.13 76.05 272.25 76.05ZM276.36 72.39C276.51 72.39 276.65 72.33 276.75 72.23C276.85 72.13 276.91 71.98 276.91 71.84C276.91 71.76 276.9 71.69 276.87 71.62C276.84 71.56 276.8 71.5 276.75 71.44C276.7 71.39 276.64 71.35 276.57 71.32C276.5 71.3 276.43 71.28 276.36 71.28C276.21 71.28 276.07 71.34 275.97 71.45C275.86 71.55 275.8 71.69 275.8 71.84C275.8 72.14 276.06 72.39 276.36 72.39ZM276.36 75.7C276.51 75.7 276.65 75.64 276.75 75.54C276.85 75.43 276.91 75.29 276.91 75.15C276.91 75.07 276.9 75 276.87 74.93C276.84 74.87 276.8 74.8 276.75 74.75C276.7 74.7 276.64 74.66 276.57 74.63C276.5 74.6 276.43 74.59 276.36 74.59C276.21 74.59 276.07 74.65 275.97 74.75C275.86 74.86 275.8 75 275.8 75.15C275.8 75.45 276.06 75.7 276.36 75.7ZM280.46 76.72C281.83 76.72 282.65 75.48 282.65 73.5L282.65 73.49C282.65 71.5 281.83 70.27 280.46 70.27C279.1 70.27 278.29 71.51 278.29 73.49L278.29 73.5C278.29 75.48 279.1 76.72 280.46 76.72ZM280.46 76.05C279.58 76.05 279.06 75.07 279.06 73.5L279.06 73.49C279.06 71.91 279.58 70.94 280.46 70.94C281.35 70.94 281.87 71.91 281.87 73.49L281.87 73.5C281.87 75.07 281.35 76.05 280.46 76.05ZM283.96 76.58L287.96 76.58L287.96 75.89L285.03 75.89L285.03 75.82L286.44 74.37C287.55 73.22 287.85 72.71 287.85 72L287.85 71.99C287.85 71 287.03 70.27 285.95 70.27C284.77 70.27 283.93 71.05 283.92 72.15L283.93 72.15L284.67 72.15L284.67 72.15C284.67 71.42 285.16 70.94 285.9 70.94C286.63 70.94 287.07 71.42 287.07 72.07L287.07 72.08C287.07 72.62 286.84 72.94 286.05 73.79L283.96 76.05L283.96 76.58Z" fill="#000000" fill-opacity="0.600000" fill-rule="nonzero"/>
		<path id="Vector" d="M6.75 129.24C10.88 129.88 14.97 127.6 16.3 126.14C14.93 122.88 23.37 114.96 17.8 114.96C16.51 114.96 15.41 111.59 10.73 114.12C10.71 115.15 10.73 118.69 10.73 119.29C10.73 127.65 5.95 128.76 6.75 129.24Z" fill="#262628" fill-opacity="1.000000" fill-rule="nonzero"/>
		<path id="Vector" d="M25.04 84.53L208.78 84.53C216.69 84.53 223.1 90.95 223.1 98.86L223.1 114.77C223.1 122.68 216.69 129.09 208.78 129.09L25.04 129.09C17.13 129.09 10.72 122.68 10.72 114.77L10.72 98.86C10.72 90.95 17.13 84.53 25.04 84.53Z" fill="#262628" fill-opacity="1.000000" fill-rule="evenodd"/>
		<path id="Vector" d="M23.74 102.84L23.74 94.87L20.85 94.87L20.85 93.87L27.75 93.87L27.75 94.87L24.86 94.87L24.86 102.84L23.74 102.84ZM30.59 102.95C28.68 102.95 27.52 101.61 27.52 99.51L27.52 99.5C27.52 97.43 28.7 96.02 30.53 96.02C32.35 96.02 33.45 97.37 33.45 99.37L33.45 99.8L28.63 99.8C28.66 101.18 29.43 101.99 30.62 101.99C31.53 101.99 32.09 101.56 32.27 101.16L32.29 101.1L33.37 101.1L33.36 101.15C33.13 102.06 32.17 102.95 30.59 102.95ZM30.52 96.98C29.53 96.98 28.77 97.66 28.65 98.93L32.35 98.93C32.24 97.61 31.51 96.98 30.52 96.98ZM34.96 102.84L34.96 93.47L36.04 93.47L36.04 102.84L34.96 102.84ZM37.94 102.84L37.94 93.47L39.02 93.47L39.02 102.84L37.94 102.84ZM46.44 102.95C44.92 102.95 44.14 102.06 44.14 100.47L44.14 96.13L45.22 96.13L45.22 100.21C45.22 101.42 45.65 102 46.72 102C47.9 102 48.53 101.28 48.53 100.1L48.53 96.13L49.61 96.13L49.61 102.84L48.53 102.84L48.53 101.83L48.43 101.83C48.1 102.55 47.43 102.95 46.44 102.95ZM53.7 102.95C52.2 102.95 51.18 102.23 51.05 101.13L52.16 101.13C52.34 101.69 52.88 102.05 53.73 102.05C54.63 102.05 55.28 101.62 55.28 101.01L55.28 101C55.28 100.55 54.93 100.23 54.11 100.03L53.07 99.78C51.81 99.48 51.25 98.94 51.25 97.97L51.25 97.97C51.25 96.86 52.32 96.02 53.74 96.02C55.14 96.02 56.12 96.72 56.27 97.81L55.21 97.81C55.06 97.28 54.54 96.92 53.73 96.92C52.94 96.92 52.35 97.33 52.35 97.92L52.35 97.93C52.35 98.38 52.69 98.67 53.48 98.86L54.51 99.11C55.77 99.42 56.38 99.96 56.38 100.92L56.38 100.93C56.38 102.13 55.22 102.95 53.7 102.95ZM61.23 102.84L61.23 93.47L62.31 93.47L62.31 97.14L62.41 97.14C62.74 96.43 63.37 96.02 64.36 96.02C65.86 96.02 66.7 96.91 66.7 98.5L66.7 102.84L65.62 102.84L65.62 98.76C65.62 97.55 65.12 96.97 64.05 96.97C62.99 96.97 62.31 97.69 62.31 98.87L62.31 102.84L61.23 102.84ZM71.18 102.95C69.27 102.95 68.09 101.64 68.09 99.49L68.09 99.48C68.09 97.33 69.27 96.02 71.18 96.02C73.08 96.02 74.27 97.33 74.27 99.48L74.27 99.49C74.27 101.64 73.08 102.95 71.18 102.95ZM71.18 102C72.45 102 73.16 101.07 73.16 99.49L73.16 99.48C73.16 97.89 72.45 96.97 71.18 96.97C69.91 96.97 69.19 97.89 69.19 99.48L69.19 99.49C69.19 101.07 69.91 102 71.18 102ZM76.75 102.84L74.87 96.13L75.96 96.13L77.27 101.49L77.37 101.49L78.87 96.13L79.9 96.13L81.39 101.49L81.49 101.49L82.81 96.13L83.89 96.13L82.01 102.84L80.92 102.84L79.42 97.65L79.32 97.65L77.83 102.84L76.75 102.84ZM89.71 102.84L87.84 96.13L88.92 96.13L90.24 101.49L90.34 101.49L91.83 96.13L92.86 96.13L94.36 101.49L94.46 101.49L95.78 96.13L96.85 96.13L94.97 102.84L93.89 102.84L92.39 97.65L92.29 97.65L90.8 102.84L89.71 102.84ZM100.53 102.95C98.61 102.95 97.46 101.61 97.46 99.51L97.46 99.5C97.46 97.43 98.64 96.02 100.46 96.02C102.28 96.02 103.39 97.37 103.39 99.37L103.39 99.8L98.56 99.8C98.6 101.18 99.36 101.99 100.55 101.99C101.46 101.99 102.02 101.56 102.2 101.16L102.23 101.1L103.31 101.1L103.3 101.15C103.07 102.06 102.11 102.95 100.53 102.95ZM100.45 96.98C99.46 96.98 98.7 97.66 98.58 98.93L102.29 98.93C102.18 97.61 101.44 96.98 100.45 96.98ZM110.91 102.95C109.04 102.95 107.84 101.59 107.84 99.47L107.84 99.45C107.84 97.37 109.03 96.02 110.91 96.02C112.54 96.02 113.51 96.95 113.71 98.15L113.72 98.19L112.64 98.19L112.63 98.17C112.47 97.51 111.87 96.97 110.91 96.97C109.7 96.97 108.94 97.94 108.94 99.45L108.94 99.47C108.94 101.01 109.71 102 110.91 102C111.81 102 112.38 101.6 112.63 100.85L112.64 100.82L113.71 100.81L113.7 100.88C113.42 102.09 112.52 102.95 110.91 102.95ZM116.9 102.95C115.62 102.95 114.66 102.18 114.66 100.96L114.66 100.95C114.66 99.76 115.54 99.07 117.1 98.97L119.02 98.86L119.02 98.25C119.02 97.42 118.52 96.97 117.52 96.97C116.72 96.97 116.19 97.27 116.01 97.79L116.01 97.81L114.93 97.81L114.93 97.78C115.11 96.72 116.13 96.02 117.56 96.02C119.19 96.02 120.1 96.86 120.1 98.25L120.1 102.84L119.02 102.84L119.02 101.85L118.92 101.85C118.5 102.56 117.8 102.95 116.9 102.95ZM115.77 100.94C115.77 101.62 116.34 102.02 117.12 102.02C118.22 102.02 119.02 101.29 119.02 100.34L119.02 99.73L117.23 99.84C116.21 99.9 115.77 100.26 115.77 100.93L115.77 100.94ZM121.84 102.84L121.84 96.13L122.92 96.13L122.92 97.14L123.02 97.14C123.36 96.43 123.99 96.02 124.98 96.02C126.48 96.02 127.32 96.91 127.32 98.5L127.32 102.84L126.24 102.84L126.24 98.76C126.24 97.55 125.74 96.97 124.67 96.97C123.6 96.97 122.92 97.69 122.92 98.87L122.92 102.84L121.84 102.84ZM132.44 102.84L132.44 93.47L133.53 93.47L133.53 97.14L133.62 97.14C133.96 96.43 134.59 96.02 135.58 96.02C137.08 96.02 137.92 96.91 137.92 98.5L137.92 102.84L136.84 102.84L136.84 98.76C136.84 97.55 136.34 96.97 135.27 96.97C134.2 96.97 133.53 97.69 133.53 98.87L133.53 102.84L132.44 102.84ZM142.38 102.95C140.46 102.95 139.31 101.61 139.31 99.51L139.31 99.5C139.31 97.43 140.49 96.02 142.31 96.02C144.13 96.02 145.24 97.37 145.24 99.37L145.24 99.8L140.41 99.8C140.44 101.18 141.21 101.99 142.4 101.99C143.31 101.99 143.87 101.56 144.05 101.16L144.07 101.1L145.15 101.1L145.14 101.15C144.91 102.06 143.96 102.95 142.38 102.95ZM142.3 96.98C141.31 96.98 140.55 97.66 140.43 98.93L144.14 98.93C144.02 97.61 143.29 96.98 142.3 96.98ZM146.74 102.84L146.74 93.47L147.82 93.47L147.82 102.84L146.74 102.84ZM149.66 105.07L149.66 96.13L150.74 96.13L150.74 97.2L150.84 97.2C151.25 96.46 152 96.02 152.93 96.02C154.62 96.02 155.74 97.39 155.74 99.48L155.74 99.49C155.74 101.59 154.63 102.95 152.93 102.95C152.01 102.95 151.21 102.49 150.84 101.78L150.74 101.78L150.74 105.07L149.66 105.07ZM152.68 102C153.9 102 154.63 101.05 154.63 99.49L154.63 99.48C154.63 97.92 153.9 96.97 152.68 96.97C151.46 96.97 150.71 97.93 150.71 99.48L150.71 99.49C150.71 101.04 151.46 102 152.68 102ZM161.1 105.19C160.94 105.19 160.78 105.17 160.62 105.15L160.62 104.26C160.75 104.28 160.92 104.29 161.07 104.29C161.69 104.29 162.06 104.01 162.3 103.24L162.43 102.84L159.95 96.13L161.1 96.13L162.94 101.65L163.04 101.65L164.88 96.13L166.01 96.13L163.4 103.25C162.84 104.75 162.29 105.19 161.1 105.19ZM169.71 102.95C167.8 102.95 166.62 101.64 166.62 99.49L166.62 99.48C166.62 97.33 167.8 96.02 169.71 96.02C171.62 96.02 172.8 97.33 172.8 99.48L172.8 99.49C172.8 101.64 171.62 102.95 169.71 102.95ZM169.71 102C170.98 102 171.69 101.07 171.69 99.49L171.69 99.48C171.69 97.89 170.98 96.97 169.71 96.97C168.44 96.97 167.73 97.89 167.73 99.48L167.73 99.49C167.73 101.07 168.44 102 169.71 102ZM176.49 102.95C174.96 102.95 174.18 102.06 174.18 100.47L174.18 96.13L175.26 96.13L175.26 100.21C175.26 101.42 175.7 102 176.77 102C177.95 102 178.57 101.28 178.57 100.1L178.57 96.13L179.66 96.13L179.66 102.84L178.57 102.84L178.57 101.83L178.47 101.83C178.15 102.55 177.47 102.95 176.49 102.95ZM186.62 102.95C185.35 102.95 184.38 102.18 184.38 100.96L184.38 100.95C184.38 99.76 185.26 99.07 186.83 98.97L188.75 98.86L188.75 98.25C188.75 97.42 188.24 96.97 187.24 96.97C186.44 96.97 185.91 97.27 185.74 97.79L185.73 97.81L184.65 97.81L184.66 97.78C184.83 96.72 185.85 96.02 187.28 96.02C188.91 96.02 189.83 96.86 189.83 98.25L189.83 102.84L188.75 102.84L188.75 101.85L188.65 101.85C188.22 102.56 187.52 102.95 186.62 102.95ZM185.49 100.94C185.49 101.62 186.07 102.02 186.84 102.02C187.94 102.02 188.75 101.29 188.75 100.34L188.75 99.73L186.96 99.84C185.94 99.9 185.49 100.26 185.49 100.93L185.49 100.94ZM191.57 102.84L191.57 96.13L192.65 96.13L192.65 97.14L192.75 97.14C193.08 96.43 193.71 96.02 194.7 96.02C196.2 96.02 197.04 96.91 197.04 98.5L197.04 102.84L195.96 102.84L195.96 98.76C195.96 97.55 195.46 96.97 194.4 96.97C193.33 96.97 192.65 97.69 192.65 98.87L192.65 102.84L191.57 102.84ZM201.24 102.95C199.54 102.95 198.43 101.58 198.43 99.49L198.43 99.48C198.43 97.38 199.53 96.02 201.24 96.02C202.16 96.02 202.96 96.48 203.33 97.19L203.43 97.19L203.43 93.47L204.51 93.47L204.51 102.84L203.43 102.84L203.43 101.77L203.33 101.77C202.92 102.51 202.17 102.95 201.24 102.95ZM201.49 102C202.7 102 203.45 101.04 203.45 99.49L203.45 99.48C203.45 97.93 202.7 96.97 201.49 96.97C200.26 96.97 199.53 97.92 199.53 99.48L199.53 99.49C199.53 101.05 200.26 102 201.49 102ZM22.56 120.34L20.69 113.64L21.77 113.64L23.09 119L23.19 119L24.68 113.64L25.71 113.64L27.21 119L27.31 119L28.63 113.64L29.7 113.64L27.82 120.34L26.74 120.34L25.24 115.16L25.14 115.16L23.65 120.34L22.56 120.34ZM33.38 120.46C31.46 120.46 30.31 119.12 30.31 117.02L30.31 117.01C30.31 114.94 31.49 113.52 33.31 113.52C35.13 113.52 36.24 114.88 36.24 116.88L36.24 117.3L31.42 117.3C31.45 118.69 32.21 119.5 33.4 119.5C34.31 119.5 34.87 119.07 35.05 118.66L35.08 118.61L36.16 118.61L36.15 118.66C35.92 119.56 34.96 120.46 33.38 120.46ZM33.31 114.49C32.31 114.49 31.55 115.16 31.43 116.44L35.14 116.44C35.03 115.11 34.29 114.49 33.31 114.49ZM42.31 120.34L40.44 113.64L41.52 113.64L42.84 119L42.94 119L44.43 113.64L45.46 113.64L46.96 119L47.06 119L48.38 113.64L49.45 113.64L47.57 120.34L46.49 120.34L44.99 115.16L44.89 115.16L43.4 120.34L42.31 120.34L42.31 120.34ZM51.21 112.35C51.02 112.35 50.83 112.27 50.69 112.13C50.55 111.99 50.47 111.8 50.47 111.6C50.47 111.4 50.55 111.21 50.69 111.07C50.83 110.93 51.02 110.86 51.21 110.86C51.41 110.86 51.6 110.93 51.74 111.07C51.88 111.21 51.96 111.4 51.96 111.6C51.96 111.8 51.88 111.99 51.74 112.13C51.6 112.27 51.41 112.35 51.21 112.35ZM50.67 120.34L50.67 113.64L51.75 113.64L51.75 120.34L50.67 120.34ZM53.61 120.34L53.61 110.98L54.69 110.98L54.69 120.34L53.61 120.34ZM56.59 120.34L56.59 110.98L57.68 110.98L57.68 120.34L56.59 120.34ZM65.24 120.39C63.86 120.39 63.28 119.88 63.28 118.6L63.28 114.54L62.22 114.54L62.22 113.64L63.28 113.64L63.28 111.91L64.4 111.91L64.4 113.64L65.86 113.64L65.86 114.54L64.4 114.54L64.4 118.33C64.4 119.12 64.67 119.43 65.37 119.43C65.56 119.43 65.67 119.43 65.86 119.41L65.86 120.33C65.66 120.37 65.45 120.39 65.24 120.39ZM67.24 120.34L67.24 113.64L68.32 113.64L68.32 114.63L68.42 114.63C68.68 113.93 69.31 113.52 70.21 113.52C70.42 113.52 70.65 113.55 70.75 113.57L70.75 114.62C70.53 114.58 70.31 114.56 70.09 114.55C69.06 114.55 68.32 115.21 68.32 116.19L68.32 120.34L67.24 120.34ZM72.42 122.69C72.26 122.69 72.1 122.68 71.94 122.65L71.94 121.76C72.08 121.79 72.24 121.8 72.39 121.8C73.01 121.8 73.38 121.52 73.62 120.75L73.75 120.35L71.27 113.64L72.42 113.64L74.26 119.15L74.36 119.15L76.2 113.64L77.34 113.64L74.72 120.75C74.16 122.26 73.61 122.69 72.42 122.69ZM84.62 120.46C82.71 120.46 81.53 119.14 81.53 117L81.53 116.98C81.53 114.83 82.71 113.52 84.62 113.52C86.53 113.52 87.71 114.83 87.71 116.98L87.71 117C87.71 119.14 86.53 120.46 84.62 120.46ZM84.62 119.5C85.89 119.5 86.61 118.58 86.61 117L86.61 116.98C86.61 115.4 85.89 114.48 84.62 114.48C83.35 114.48 82.64 115.4 82.64 116.98L82.64 117C82.64 118.58 83.35 119.5 84.62 119.5ZM91.4 120.46C89.87 120.46 89.09 119.56 89.09 117.98L89.09 113.64L90.17 113.64L90.17 117.72C90.17 118.92 90.61 119.5 91.68 119.5C92.86 119.5 93.48 118.78 93.48 117.61L93.48 113.64L94.57 113.64L94.57 120.34L93.48 120.34L93.48 119.34L93.39 119.34C93.06 120.06 92.38 120.46 91.4 120.46ZM96.35 120.34L96.35 113.64L97.43 113.64L97.43 114.63L97.53 114.63C97.78 113.93 98.41 113.52 99.32 113.52C99.53 113.52 99.76 113.55 99.86 113.57L99.86 114.62C99.64 114.58 99.42 114.56 99.2 114.55C98.16 114.55 97.43 115.21 97.43 116.19L97.43 120.34L96.35 120.34ZM107.63 120.46C106.7 120.46 105.95 120.02 105.55 119.27L105.45 119.27L105.45 120.34L104.36 120.34L104.36 110.98L105.45 110.98L105.45 114.7L105.55 114.7C105.91 113.98 106.71 113.52 107.63 113.52C109.34 113.52 110.44 114.88 110.44 116.98L110.44 117C110.44 119.09 109.33 120.46 107.63 120.46ZM107.38 119.5C108.61 119.5 109.34 118.56 109.34 117L109.34 116.98C109.34 115.42 108.61 114.48 107.38 114.48C106.17 114.48 105.42 115.44 105.42 116.98L105.42 117C105.42 118.54 106.17 119.5 107.38 119.5ZM114.62 120.46C112.7 120.46 111.55 119.12 111.55 117.02L111.55 117.01C111.55 114.94 112.73 113.52 114.55 113.52C116.37 113.52 117.48 114.88 117.48 116.88L117.48 117.3L112.65 117.3C112.69 118.69 113.45 119.5 114.64 119.5C115.55 119.5 116.11 119.07 116.29 118.66L116.32 118.61L117.4 118.61L117.39 118.66C117.16 119.56 116.2 120.46 114.62 120.46ZM114.54 114.49C113.55 114.49 112.79 115.16 112.67 116.44L116.38 116.44C116.27 115.11 115.53 114.49 114.54 114.49ZM121.22 120.46C119.73 120.46 118.7 119.74 118.58 118.63L119.68 118.63C119.86 119.19 120.4 119.56 121.26 119.56C122.16 119.56 122.8 119.13 122.8 118.52L122.8 118.51C122.8 118.05 122.46 117.74 121.63 117.54L120.59 117.29C119.34 116.99 118.77 116.44 118.77 115.48L118.77 115.47C118.77 114.36 119.84 113.52 121.26 113.52C122.67 113.52 123.64 114.22 123.79 115.32L122.73 115.32C122.59 114.79 122.06 114.42 121.26 114.42C120.46 114.42 119.88 114.83 119.88 115.42L119.88 115.44C119.88 115.89 120.21 116.18 121 116.37L122.03 116.62C123.3 116.92 123.9 117.47 123.9 118.43L123.9 118.44C123.9 119.63 122.74 120.46 121.22 120.46ZM127.66 120.39C126.28 120.39 125.7 119.88 125.7 118.6L125.7 114.54L124.65 114.54L124.65 113.64L125.7 113.64L125.7 111.91L126.82 111.91L126.82 113.64L128.29 113.64L128.29 114.54L126.82 114.54L126.82 118.33C126.82 119.12 127.1 119.43 127.79 119.43C127.99 119.43 128.09 119.43 128.29 119.41L128.29 120.33C128.08 120.37 127.87 120.39 127.66 120.39ZM130.12 117.36L130.02 111.37L131.26 111.37L131.15 117.36L130.12 117.36ZM130.64 120.45C130.14 120.45 129.78 120.09 129.78 119.59C129.78 119.08 130.14 118.72 130.64 118.72C131.15 118.72 131.5 119.08 131.5 119.59C131.5 120.09 131.15 120.45 130.64 120.45Z" fill="#FFFFFF" fill-opacity="1.000000" fill-rule="nonzero"/>
	</g>
</svg>
