<svg width="96.000000" height="96.000000" viewBox="0 0 96 96" fill="none" xmlns="http://www.w3.org/2000/svg" xmlns:xlink="http://www.w3.org/1999/xlink">
	<desc>
			Created with Pixso.
	</desc>
	<defs/>
	<path id="Vector" d="M22.5 -0.5L72.5 -0.5C85.2 -0.5 95.5 9.79 95.5 22.5L95.5 72.5C95.5 85.2 85.2 95.5 72.5 95.5L22.5 95.5C9.79 95.5 -0.5 85.2 -0.5 72.5L-0.5 22.5C-0.5 9.79 9.79 -0.5 22.5 -0.5Z" fill="#FFFFFF" fill-opacity="0.010000" fill-rule="evenodd"/>
	<path id="Vector" d="M22.5 -0.5L72.5 -0.5C85.2 -0.5 95.5 9.79 95.5 22.5L95.5 72.5C95.5 85.2 85.2 95.5 72.5 95.5L22.5 95.5C9.79 95.5 -0.5 85.2 -0.5 72.5L-0.5 22.5C-0.5 9.79 9.79 -0.5 22.5 -0.5Z" fill="#05AA53" fill-opacity="1.000000" fill-rule="evenodd"/>
	<path id="Vector" d="M47.54 55.83C50.76 48.86 57.82 44.03 66.01 44.03C66.14 44.03 66.28 44.03 66.41 44.03L66.41 44.11C58.19 44.28 51.17 49.33 48.15 56.49C50.97 57.91 54.08 58.64 57.24 58.64C68.4 58.64 77.45 49.61 77.5 38.46C74.52 36.84 71.18 35.99 67.79 36C56.74 36 47.76 44.84 47.54 55.83ZM47.45 55.83C44.23 48.86 37.17 44.03 28.98 44.03C28.85 44.03 28.71 44.03 28.58 44.03L28.58 44.11C36.8 44.28 43.82 49.33 46.84 56.49C44.02 57.91 40.91 58.64 37.75 58.64C26.59 58.64 17.54 49.61 17.5 38.47C20.47 36.84 23.81 35.99 27.2 36C38.25 36 47.23 44.84 47.45 55.83Z" fill="#FFFFFF" fill-opacity="1.000000" fill-rule="nonzero"/>
</svg>
