<svg width="305.000000" height="523.000000" viewBox="0 0 305 523" fill="none" xmlns="http://www.w3.org/2000/svg" xmlns:xlink="http://www.w3.org/1999/xlink">
	<desc>
			Created with Pixso.
	</desc>
	<defs>
		<clipPath id="clip1_33">
			<rect id="svg-1675588445_603" width="14.000000" height="14.000000" transform="translate(276.000000 132.593750)" fill="white" fill-opacity="0"/>
		</clipPath>
		<clipPath id="clip1_32">
			<rect id="Icon" width="14.000000" height="14.000000" transform="translate(276.000000 132.593750)" fill="white" fill-opacity="0"/>
		</clipPath>
		<clipPath id="clip1_44">
			<rect id="svg1557161731_251" width="14.000000" height="14.000000" transform="translate(19.000000 452.421875)" fill="white" fill-opacity="0"/>
		</clipPath>
		<clipPath id="clip1_43">
			<rect id="Icon" width="14.000000" height="14.000000" transform="translate(19.000000 452.421875)" fill="white" fill-opacity="0"/>
		</clipPath>
		<clipPath id="clip1_39">
			<rect id="Div [framer-h8wfqc]" width="269.000000" height="43.750000" transform="translate(19.000000 437.546875)" fill="white" fill-opacity="0"/>
		</clipPath>
		<clipPath id="clip1_47">
			<rect id="Div [framer-1lbpay]" width="247.000000" height="46.900002" transform="translate(41.000000 390.656250)" fill="white" fill-opacity="0"/>
		</clipPath>
		<clipPath id="clip1_56">
			<rect id="Div [framer-1v3ba6n]" width="247.000000" height="46.900002" transform="translate(41.000000 343.765625)" fill="white" fill-opacity="0"/>
		</clipPath>
		<clipPath id="clip1_71">
			<rect id="svg-64306230_252" width="14.000000" height="14.000000" transform="translate(19.000000 314.890625)" fill="white" fill-opacity="0"/>
		</clipPath>
		<clipPath id="clip1_70">
			<rect id="Icon" width="14.000000" height="14.000000" transform="translate(19.000000 314.890625)" fill="white" fill-opacity="0"/>
		</clipPath>
		<clipPath id="clip1_65">
			<rect id="Div [framer-yyb4ck]" width="269.000000" height="43.750000" transform="translate(19.000000 300.015625)" fill="white" fill-opacity="0"/>
		</clipPath>
		<clipPath id="clip1_74">
			<rect id="Div [framer-1upbknd]" width="247.000000" height="46.900002" transform="translate(41.000000 253.125000)" fill="white" fill-opacity="0"/>
		</clipPath>
		<clipPath id="clip1_83">
			<rect id="Div [framer-1p3daje]" width="247.000000" height="46.900002" transform="translate(41.000000 206.234375)" fill="white" fill-opacity="0"/>
		</clipPath>
		<clipPath id="clip1_92">
			<rect id="Div [framer-1untyoq]" width="247.000000" height="46.900002" transform="translate(41.000000 159.343750)" fill="white" fill-opacity="0"/>
		</clipPath>
		<clipPath id="clip1_109">
			<rect id="svg-452132931_252" width="14.000000" height="13.000000" transform="translate(19.000000 130.968750)" fill="white" fill-opacity="0"/>
		</clipPath>
		<clipPath id="clip1_108">
			<rect id="Icon" width="14.000000" height="13.000000" transform="translate(19.000000 130.968750)" fill="white" fill-opacity="0"/>
		</clipPath>
		<clipPath id="clip1_103">
			<rect id="Div [framer-19e1cg0]" width="269.000000" height="43.750000" transform="translate(19.000000 115.593750)" fill="white" fill-opacity="0"/>
		</clipPath>
		<clipPath id="clip1_112">
			<rect id="svg-1124482381_343" width="49.000000" height="50.000000" transform="translate(228.000000 446.593750)" fill="white" fill-opacity="0"/>
		</clipPath>
		<clipPath id="clip1_111">
			<rect id="Icon" width="49.000000" height="50.000000" transform="translate(228.000000 446.593750)" fill="white" fill-opacity="0"/>
		</clipPath>
		<clipPath id="clip1_116">
			<rect id="svg-818331780_4937" width="306.000000" height="36.000000" transform="translate(0.000000 2.593750)" fill="white" fill-opacity="0"/>
		</clipPath>
		<clipPath id="clip1_115">
			<rect id="Icon" width="306.000000" height="36.000000" transform="translate(0.000000 2.593750)" fill="white" fill-opacity="0"/>
		</clipPath>
		<clipPath id="clip1_135">
			<rect id="svg530082018_2245" width="306.000000" height="51.000000" transform="translate(-0.421875 564.593750)" fill="white" fill-opacity="0"/>
		</clipPath>
		<clipPath id="clip1_134">
			<rect id="Icon" width="306.000000" height="51.000000" transform="translate(-0.421875 564.593750)" fill="white" fill-opacity="0"/>
		</clipPath>
		<clipPath id="clip1_31">
			<rect id="Div [framer-1vfgnt5]" rx="24.000000" width="305.000000" height="523.000000" transform="translate(0.000000 -0.406250)" fill="white" fill-opacity="0"/>
		</clipPath>
	</defs>
	<path id="Div [framer-1vfgnt5]" d="M24 -0.41L281 -0.41C294.25 -0.41 305 10.33 305 23.59L305 522.59L0 522.59L0 23.59C0 10.33 10.74 -0.41 24 -0.41Z" fill="#FFFFFF" fill-opacity="1.000000" fill-rule="evenodd"/>
	<g clip-path="url(#clip1_31)">
		<rect id="Icon" width="14.000000" height="14.000000" transform="translate(276.000000 132.593750)" fill="#FFFFFF" fill-opacity="0"/>
		<g clip-path="url(#clip1_32)">
			<rect id="svg-1675588445_603" width="14.000000" height="14.000000" transform="translate(276.000000 132.593750)" fill="#FFFFFF" fill-opacity="0"/>
			<g clip-path="url(#clip1_33)">
				<path id="Vector" d="M287.91 138.59L278.52 138.59" stroke="#717A8D" stroke-opacity="1.000000" stroke-width="0.782372" stroke-linejoin="round" stroke-linecap="round"/>
				<path id="Vector" d="M287.91 136.5L278.52 136.5" stroke="#717A8D" stroke-opacity="1.000000" stroke-width="0.782372" stroke-linejoin="round" stroke-linecap="round"/>
				<path id="Vector" d="M287.91 140.68L278.52 140.68" stroke="#717A8D" stroke-opacity="1.000000" stroke-width="0.782372" stroke-linejoin="round" stroke-linecap="round"/>
				<path id="Vector" d="M287.91 142.76L278.52 142.76" stroke="#717A8D" stroke-opacity="1.000000" stroke-width="0.782372" stroke-linejoin="round" stroke-linecap="round"/>
			</g>
		</g>
		<rect id="Div [framer-h8wfqc]" width="269.000000" height="43.750000" transform="translate(19.000000 437.546875)" fill="#FFFFFF" fill-opacity="1.000000"/>
		<g clip-path="url(#clip1_39)">
			<path id="Study ðŸ“š" d="M48.79 457.15L47.78 457.15C47.67 456.29 46.88 455.79 45.83 455.79C44.68 455.79 43.92 456.4 43.92 457.23C43.92 458.16 44.95 458.5 45.59 458.67L46.47 458.9C47.37 459.14 48.91 459.67 48.91 461.29C48.91 462.69 47.78 463.79 45.78 463.79C43.92 463.79 42.77 462.83 42.67 461.41L43.75 461.41C43.84 462.38 44.75 462.84 45.78 462.84C46.98 462.84 47.9 462.22 47.9 461.27C47.9 460.41 47.08 460.09 46.17 459.83L45.11 459.53C43.75 459.14 42.91 458.45 42.91 457.28C42.91 455.83 44.21 454.86 45.86 454.86C47.54 454.86 48.74 455.84 48.79 457.15ZM66.08 462.64C65.86 462.99 65.44 463.77 64.19 463.77C62.57 463.77 61.43 462.47 61.43 460.41C61.43 458.36 62.57 457.06 64.21 457.06C65.47 457.06 65.86 457.84 66.08 458.18L66.17 458.18L66.17 454.98L67.16 454.98L67.16 463.64L66.2 463.64L66.2 462.64L66.08 462.64ZM51.94 457.15L53.32 457.15L53.32 457.99L51.94 457.99L51.94 461.78C51.94 462.62 52.36 462.76 52.8 462.76C53.02 462.76 53.15 462.72 53.24 462.71L53.44 463.6C53.3 463.65 53.07 463.72 52.7 463.72C51.85 463.72 50.94 463.18 50.94 462.05L50.94 457.99L49.96 457.99L49.96 457.15L50.94 457.15L50.94 455.59L51.94 455.59L51.94 457.15ZM57.24 462.76C57.99 462.76 58.91 462.2 58.91 460.98L58.91 457.15L59.91 457.15L59.91 463.64L58.91 463.64L58.91 462.54L58.85 462.54C58.54 463.2 57.9 463.72 56.92 463.72C55.7 463.72 54.82 462.93 54.82 461.27L54.82 457.15L55.82 457.15L55.82 461.2C55.82 462.15 56.41 462.76 57.24 462.76ZM71.68 464.58C71.3 465.59 70.67 466.07 69.77 466.07C69.43 466.07 69.14 466 69.04 465.95L69.29 465.07C70.02 465.26 70.47 465.17 70.83 464.18L71.02 463.67L68.62 457.15L69.7 457.15L71.49 462.32L71.56 462.32L73.35 457.15L74.43 457.15L71.68 464.58ZM62.43 460.39C62.43 461.78 63.07 462.88 64.32 462.88C65.52 462.88 66.18 461.86 66.18 460.39C66.18 458.94 65.54 457.96 64.32 457.96C63.06 457.96 62.43 459.02 62.43 460.39Z" fill="#333335" fill-opacity="1.000000" fill-rule="evenodd"/>
			<rect id="Icon" width="14.000000" height="14.000000" transform="translate(19.000000 452.421875)" fill="#FFFFFF" fill-opacity="0"/>
			<g clip-path="url(#clip1_43)">
				<rect id="svg1557161731_251" width="14.000000" height="14.000000" transform="translate(19.000000 452.421875)" fill="#FFFFFF" fill-opacity="0"/>
				<g clip-path="url(#clip1_44)">
					<path id="Vector" d="M24.47 462.75L27.6 459.63L24.47 456.5" stroke="#333335" stroke-opacity="1.000000" stroke-width="0.782372" stroke-linejoin="round" stroke-linecap="round"/>
				</g>
			</g>
		</g>
		<rect id="Div [framer-1lbpay]" width="247.000000" height="46.900002" transform="translate(41.000000 390.656250)" fill="#FFFFFF" fill-opacity="1.000000"/>
		<g clip-path="url(#clip1_47)">
			<rect id="Div" rx="7.500000" width="15.000000" height="15.000000" transform="translate(41.500000 406.593750)" stroke="#717A8D" stroke-opacity="1.000000" stroke-width="1.000000"/>
			<rect id="Div" width="247.000000" height="46.880001" transform="translate(41.000000 390.656250)" stroke="#EEEEEE" stroke-opacity="1.000000" stroke-width="0.000000"/>
			<path id="Snooze phone" d="M76.79 407.15L75.78 407.15C75.67 406.29 74.88 405.79 73.83 405.79C72.68 405.79 71.92 406.4 71.92 407.23C71.92 408.16 72.95 408.5 73.59 408.67L74.47 408.9C75.37 409.14 76.91 409.67 76.91 411.29C76.91 412.69 75.78 413.79 73.78 413.79C71.92 413.79 70.77 412.83 70.67 411.41L71.75 411.41C71.84 412.38 72.75 412.84 73.78 412.84C74.98 412.84 75.9 412.22 75.9 411.27C75.9 410.41 75.08 410.09 74.17 409.83L73.11 409.53C71.75 409.14 70.91 408.45 70.91 407.28C70.91 405.83 72.21 404.86 73.86 404.86C75.54 404.86 76.74 405.84 76.79 407.15ZM126.15 407.96C125.16 407.96 124.44 408.6 124.44 409.73L124.44 413.64L123.44 413.64L123.44 404.98L124.44 404.98L124.44 408.16L124.53 408.16C124.83 407.49 125.41 407.06 126.44 407.06C127.76 407.06 128.65 407.84 128.65 409.51L128.65 413.64L127.65 413.64L127.65 409.58C127.65 408.55 127.09 407.96 126.15 407.96ZM81.15 407.96C80.2 407.96 79.49 408.6 79.49 409.73L79.49 413.64L78.5 413.64L78.5 407.15L79.46 407.15L79.46 408.16L79.55 408.16C79.85 407.5 80.46 407.06 81.44 407.06C82.75 407.06 83.64 407.86 83.64 409.51L83.64 413.64L82.64 413.64L82.64 409.58C82.64 408.56 82.08 407.96 81.15 407.96ZM91.04 410.43C91.04 412.44 89.86 413.77 88.1 413.77C86.34 413.77 85.16 412.44 85.16 410.43C85.16 408.4 86.34 407.06 88.1 407.06C89.86 407.06 91.04 408.4 91.04 410.43ZM98.14 410.43C98.14 412.44 96.96 413.77 95.2 413.77C93.44 413.77 92.26 412.44 92.26 410.43C92.26 408.4 93.44 407.06 95.2 407.06C96.96 407.06 98.14 408.4 98.14 410.43ZM111.22 412.13C110.92 413.11 109.96 413.77 108.64 413.77C106.76 413.77 105.61 412.44 105.61 410.44C105.61 408.45 106.78 407.06 108.54 407.06C109.89 407.06 111.32 407.89 111.32 410.31L111.32 410.73L106.61 410.73C106.66 412.12 107.47 412.88 108.64 412.88C109.42 412.88 110.01 412.54 110.26 411.86L111.22 412.13ZM117.19 416.07L116.19 416.07L116.19 407.15L117.16 407.15L117.16 408.18L117.28 408.18C117.49 407.84 117.88 407.06 119.15 407.06C120.79 407.06 121.92 408.36 121.92 410.41C121.92 412.47 120.79 413.77 119.17 413.77C117.92 413.77 117.49 412.99 117.28 412.64L117.19 412.64L117.19 416.07ZM136.05 410.43C136.05 412.44 134.87 413.77 133.11 413.77C131.36 413.77 130.17 412.44 130.17 410.43C130.17 408.4 131.36 407.06 133.11 407.06C134.87 407.06 136.05 408.4 136.05 410.43ZM140.23 407.96C139.27 407.96 138.57 408.6 138.57 409.73L138.57 413.64L137.57 413.64L137.57 407.15L138.54 407.15L138.54 408.16L138.62 408.16C138.93 407.5 139.53 407.06 140.52 407.06C141.83 407.06 142.71 407.86 142.71 409.51L142.71 413.64L141.72 413.64L141.72 409.58C141.72 408.56 141.15 407.96 140.23 407.96ZM149.85 412.13C149.54 413.11 148.58 413.77 147.26 413.77C145.38 413.77 144.23 412.44 144.23 410.44C144.23 408.45 145.4 407.06 147.16 407.06C148.51 407.06 149.95 407.89 149.95 410.31L149.95 410.73L145.24 410.73C145.28 412.12 146.09 412.88 147.26 412.88C148.04 412.88 148.63 412.54 148.88 411.86L149.85 412.13ZM104.56 413.64L99.47 413.64L99.47 412.88L103.16 408.14L103.16 408.08L99.59 408.08L99.59 407.15L104.45 407.15L104.45 407.94L100.86 412.64L100.86 412.71L104.56 412.71L104.56 413.64ZM86.16 410.43C86.16 411.73 86.76 412.88 88.1 412.88C89.43 412.88 90.04 411.73 90.04 410.43C90.04 409.12 89.43 407.96 88.1 407.96C86.76 407.96 86.16 409.12 86.16 410.43ZM93.25 410.43C93.25 411.73 93.86 412.88 95.2 412.88C96.53 412.88 97.14 411.73 97.14 410.43C97.14 409.12 96.53 407.96 95.2 407.96C93.86 407.96 93.25 409.12 93.25 410.43ZM108.54 407.96C107.39 407.96 106.68 408.86 106.61 409.87L110.31 409.87C110.31 408.77 109.62 407.96 108.54 407.96ZM119.03 407.96C117.82 407.96 117.17 408.94 117.17 410.39C117.17 411.86 117.83 412.88 119.03 412.88C120.28 412.88 120.92 411.78 120.92 410.39C120.92 409.02 120.3 407.96 119.03 407.96ZM131.17 410.43C131.17 411.73 131.78 412.88 133.11 412.88C134.45 412.88 135.06 411.73 135.06 410.43C135.06 409.12 134.45 407.96 133.11 407.96C131.78 407.96 131.17 409.12 131.17 410.43ZM147.16 407.96C146.02 407.96 145.3 408.86 145.24 409.87L148.93 409.87C148.93 408.77 148.24 407.96 147.16 407.96Z" fill="#333335" fill-opacity="1.000000" fill-rule="evenodd"/>
			<path id="Weekdays" d="M72.2 425.1L71.56 425.1L70.15 419.94L70.78 419.94L71.86 424.15L71.91 424.15L73.01 419.94L73.72 419.94L74.82 424.15L74.87 424.15L75.95 419.94L76.58 419.94L75.17 425.1L74.52 425.1L73.38 420.99L73.34 420.99L72.2 425.1ZM85.07 425.1L84.48 425.1L84.48 419.94L85.07 419.94L85.07 422.96L85.14 422.96L86.84 421.23L87.58 421.23L85.94 422.89L87.7 425.1L86.94 425.1L85.49 423.27L85.07 423.66L85.07 425.1ZM90.54 424.51C90.41 424.72 90.15 425.19 89.41 425.19C88.44 425.19 87.76 424.41 87.76 423.18C87.76 421.96 88.44 421.18 89.42 421.18C90.18 421.18 90.41 421.64 90.54 421.85L90.59 421.85L90.59 419.94L91.18 419.94L91.18 425.1L90.61 425.1L90.61 424.51L90.54 424.51ZM79.85 424.21C79.66 424.79 79.09 425.19 78.3 425.19C77.18 425.19 76.5 424.39 76.5 423.2C76.5 422.01 77.19 421.18 78.24 421.18C79.05 421.18 79.91 421.68 79.91 423.12L79.91 423.37L77.09 423.37C77.12 424.2 77.6 424.65 78.3 424.65C78.77 424.65 79.12 424.45 79.27 424.05L79.85 424.21ZM83.75 424.21C83.56 424.79 82.99 425.19 82.2 425.19C81.08 425.19 80.4 424.39 80.4 423.2C80.4 422.01 81.09 421.18 82.14 421.18C82.95 421.18 83.81 421.68 83.81 423.12L83.81 423.37L80.99 423.37C81.02 424.2 81.5 424.65 82.2 424.65C82.67 424.65 83.02 424.45 83.17 424.05L83.75 424.21ZM94.41 424.58C94.29 424.83 93.93 425.19 93.26 425.19C92.52 425.19 91.94 424.76 91.94 424.01C91.94 423.12 92.72 422.96 93.44 422.87C94.15 422.78 94.44 422.8 94.44 422.51L94.44 422.49C94.44 422 94.17 421.71 93.62 421.71C93.05 421.71 92.74 422.01 92.61 422.29L92.05 422.09C92.35 421.38 93.02 421.18 93.6 421.18C94.1 421.18 95.03 421.32 95.03 422.55L95.03 425.1L94.44 425.1L94.44 424.58L94.41 424.58ZM100.84 421.18C101.6 421.18 102.02 421.55 102.21 422.1L101.67 422.25C101.57 421.98 101.36 421.7 100.84 421.7C100.36 421.7 100.01 421.94 100.01 422.27C100.01 422.57 100.22 422.72 100.68 422.84L101.25 422.98C101.94 423.15 102.28 423.49 102.28 424.02C102.28 424.69 101.67 425.19 100.77 425.19C99.98 425.19 99.43 424.83 99.29 424.18L99.86 424.04C99.96 424.45 100.27 424.66 100.76 424.66C101.31 424.66 101.67 424.39 101.67 424.06C101.67 423.79 101.48 423.6 101.09 423.51L100.45 423.36C99.73 423.19 99.42 422.84 99.42 422.3C99.42 421.64 100.02 421.18 100.84 421.18ZM97.27 425.67C97.04 426.27 96.67 426.56 96.13 426.56C95.93 426.56 95.76 426.52 95.7 426.49L95.85 425.96C96.28 426.07 96.55 426.02 96.77 425.43L96.88 425.13L95.45 421.23L96.09 421.23L97.16 424.32L97.2 424.32L98.27 421.23L98.91 421.23L97.27 425.67ZM78.24 421.72C77.56 421.72 77.13 422.25 77.09 422.86L79.3 422.86C79.3 422.2 78.89 421.72 78.24 421.72ZM82.14 421.72C81.46 421.72 81.03 422.25 80.99 422.86L83.2 422.86C83.2 422.2 82.79 421.72 82.14 421.72ZM88.36 423.17C88.36 424 88.74 424.65 89.49 424.65C90.2 424.65 90.6 424.05 90.6 423.17C90.6 422.3 90.21 421.72 89.49 421.72C88.73 421.72 88.36 422.35 88.36 423.17ZM92.53 424.04C92.53 424.45 92.88 424.66 93.35 424.66C94.05 424.66 94.44 424.19 94.44 423.7L94.44 423.16C94.34 423.28 93.66 423.35 93.41 423.38C92.95 423.44 92.53 423.58 92.53 424.04Z" fill="#717A8D" fill-opacity="1.000000" fill-rule="evenodd"/>
		</g>
		<rect id="Div [framer-1v3ba6n]" width="247.000000" height="46.900002" transform="translate(41.000000 343.765625)" fill="#FFFFFF" fill-opacity="1.000000"/>
		<g clip-path="url(#clip1_56)">
			<rect id="Div" rx="7.500000" width="15.000000" height="15.000000" transform="translate(41.500000 359.703125)" stroke="#717A8D" stroke-opacity="1.000000" stroke-width="1.000000"/>
			<rect id="Div" width="247.000000" height="46.880001" transform="translate(41.000000 343.765625)" stroke="#EEEEEE" stroke-opacity="1.000000" stroke-width="0.000000"/>
			<path id="Selfcare" d="M89.69 360.26L91.14 360.26L91.14 361.1L89.69 361.1L89.69 366.75L88.69 366.75L88.69 361.1L87.64 361.1L87.64 360.26L88.69 360.26L88.69 359.36C88.69 358.24 89.59 357.68 90.52 357.68C91.01 357.68 91.31 357.79 91.46 357.86L91.18 358.72C91.07 358.68 90.91 358.61 90.62 358.61C89.96 358.61 89.69 358.95 89.69 359.6L89.69 360.26ZM76.79 360.26L75.78 360.26C75.67 359.4 74.88 358.9 73.83 358.9C72.68 358.9 71.92 359.51 71.92 360.34C71.92 361.27 72.95 361.61 73.59 361.78L74.47 362.01C75.37 362.25 76.91 362.77 76.91 364.4C76.91 365.8 75.78 366.9 73.78 366.9C71.92 366.9 70.77 365.94 70.67 364.51L71.75 364.51C71.84 365.49 72.75 365.95 73.78 365.95C74.98 365.95 75.9 365.33 75.9 364.38C75.9 363.52 75.08 363.2 74.17 362.94L73.11 362.64C71.75 362.25 70.91 361.56 70.91 360.39C70.91 358.94 72.21 357.97 73.86 357.97C75.54 357.97 76.74 358.95 76.79 360.26ZM85.43 358.09L86.42 358.09L86.42 366.75L85.43 366.75L85.43 358.09ZM106.62 366.75L105.63 366.75L105.63 360.26L106.59 360.26L106.59 361.23L106.66 361.23C106.9 360.59 107.57 360.15 108.35 360.15C108.5 360.15 108.76 360.16 108.87 360.17L108.87 361.19C108.81 361.17 108.53 361.12 108.27 361.12C107.32 361.12 106.62 361.76 106.62 362.64L106.62 366.75ZM83.8 365.24C83.5 366.22 82.54 366.88 81.22 366.88C79.34 366.88 78.19 365.55 78.19 363.55C78.19 361.56 79.36 360.17 81.12 360.17C82.47 360.17 83.91 361 83.91 363.42L83.91 363.84L79.19 363.84C79.24 365.23 80.05 365.98 81.22 365.98C82 365.98 82.59 365.65 82.84 364.97L83.8 365.24ZM97.46 364.85C97.29 366 96.35 366.88 94.91 366.88C93.08 366.88 91.97 365.48 91.97 363.54C91.97 361.56 93.14 360.17 94.89 360.17C96.26 360.17 97.29 360.98 97.46 362.2L96.47 362.2C96.31 361.61 95.79 361.07 94.91 361.07C93.74 361.07 92.97 362.03 92.97 363.5C92.97 365.01 93.73 365.98 94.91 365.98C95.69 365.98 96.28 365.56 96.47 364.85L97.46 364.85ZM102.75 365.87C102.55 366.29 101.96 366.9 100.83 366.9C99.59 366.9 98.61 366.17 98.61 364.9C98.61 363.42 99.93 363.15 101.13 362.99C102.32 362.84 102.8 362.88 102.8 362.4L102.8 362.37C102.8 361.54 102.35 361.05 101.44 361.05C100.49 361.05 99.97 361.56 99.74 362.03L98.8 361.69C99.31 360.51 100.42 360.17 101.4 360.17C102.23 360.17 103.8 360.41 103.8 362.47L103.8 366.75L102.8 366.75L102.8 365.87L102.75 365.87ZM115.16 365.24C114.86 366.22 113.89 366.88 112.58 366.88C110.7 366.88 109.55 365.55 109.55 363.55C109.55 361.56 110.72 360.17 112.47 360.17C113.82 360.17 115.26 361 115.26 363.42L115.26 363.84L110.55 363.84C110.6 365.23 111.4 365.98 112.58 365.98C113.36 365.98 113.94 365.65 114.2 364.97L115.16 365.24ZM81.12 361.07C79.98 361.07 79.26 361.97 79.19 362.98L82.89 362.98C82.89 361.88 82.2 361.07 81.12 361.07ZM112.47 361.07C111.33 361.07 110.62 361.97 110.55 362.98L114.25 362.98C114.25 361.88 113.55 361.07 112.47 361.07ZM99.61 364.95C99.61 365.65 100.19 366 100.98 366C102.16 366 102.8 365.21 102.8 364.4L102.8 363.48C102.64 363.69 101.5 363.81 101.08 363.86C100.3 363.96 99.61 364.19 99.61 364.95Z" fill="#333335" fill-opacity="1.000000" fill-rule="evenodd"/>
			<path id="Tue, Wed, Thu" d="M71.96 373.61L70.34 373.61L70.34 373.05L74.21 373.05L74.21 373.61L72.59 373.61L72.59 378.21L71.96 378.21L71.96 373.61ZM87.31 378.21L86.66 378.21L85.25 373.05L85.89 373.05L86.96 377.26L87.02 377.26L88.12 373.05L88.82 373.05L89.92 377.26L89.97 377.26L91.05 373.05L91.68 373.05L90.27 378.21L89.63 378.21L88.49 374.1L88.45 374.1L87.31 378.21ZM98.27 377.62C98.14 377.83 97.89 378.3 97.15 378.3C96.18 378.3 95.5 377.52 95.5 376.29C95.5 375.07 96.18 374.29 97.16 374.29C97.91 374.29 98.14 374.75 98.27 374.96L98.33 374.96L98.33 373.05L98.92 373.05L98.92 378.21L98.35 378.21L98.35 377.62L98.27 377.62ZM104.79 373.61L103.17 373.61L103.17 373.05L107.04 373.05L107.04 373.61L105.42 373.61L105.42 378.21L104.79 378.21L104.79 373.61ZM109.31 374.83C108.72 374.83 108.29 375.21 108.29 375.88L108.29 378.21L107.69 378.21L107.69 373.05L108.29 373.05L108.29 374.95L108.34 374.95C108.52 374.55 108.87 374.29 109.48 374.29C110.27 374.29 110.8 374.76 110.8 375.75L110.8 378.21L110.21 378.21L110.21 375.79C110.21 375.18 109.87 374.83 109.31 374.83ZM81.4 377.32C81.21 377.9 80.64 378.3 79.85 378.3C78.73 378.3 78.05 377.5 78.05 376.31C78.05 375.12 78.74 374.29 79.79 374.29C80.6 374.29 81.46 374.79 81.46 376.23L81.46 376.48L78.65 376.48C78.67 377.31 79.15 377.76 79.85 377.76C80.32 377.76 80.67 377.56 80.82 377.16L81.4 377.32ZM94.95 377.32C94.77 377.9 94.19 378.3 93.41 378.3C92.29 378.3 91.6 377.5 91.6 376.31C91.6 375.12 92.3 374.29 93.35 374.29C94.15 374.29 95.01 374.79 95.01 376.23L95.01 376.48L92.2 376.48C92.23 377.31 92.71 377.76 93.41 377.76C93.87 377.76 94.22 377.56 94.37 377.16L94.95 377.32ZM75.78 377.69C76.22 377.69 76.78 377.36 76.78 376.63L76.78 374.34L77.37 374.34L77.37 378.21L76.78 378.21L76.78 377.56L76.74 377.56C76.56 377.95 76.17 378.26 75.59 378.26C74.86 378.26 74.34 377.79 74.34 376.8L74.34 374.34L74.93 374.34L74.93 376.76C74.93 377.33 75.29 377.69 75.78 377.69ZM113.1 377.69C113.54 377.69 114.1 377.36 114.1 376.63L114.1 374.34L114.69 374.34L114.69 378.21L114.1 378.21L114.1 377.56L114.06 377.56C113.87 377.95 113.49 378.26 112.91 378.26C112.18 378.26 111.66 377.79 111.66 376.8L111.66 374.34L112.25 374.34L112.25 376.76C112.25 377.33 112.6 377.69 113.1 377.69ZM79.79 374.83C79.11 374.83 78.68 375.36 78.65 375.97L80.85 375.97C80.85 375.31 80.44 374.83 79.79 374.83ZM93.35 374.83C92.67 374.83 92.24 375.36 92.2 375.97L94.41 375.97C94.41 375.31 93.99 374.83 93.35 374.83ZM96.1 376.28C96.1 377.1 96.48 377.76 97.23 377.76C97.94 377.76 98.34 377.16 98.34 376.28C98.34 375.41 97.95 374.83 97.23 374.83C96.47 374.83 96.1 375.46 96.1 376.28ZM82.37 377.51L83.02 377.51L82.98 377.78C82.89 378.35 82.63 379.13 82.51 379.47L82.06 379.47C82.12 379.16 82.27 378.47 82.34 377.79L82.37 377.51ZM100.1 377.51L100.74 377.51L100.7 377.78C100.62 378.35 100.36 379.13 100.24 379.47L99.79 379.47C99.85 379.16 99.99 378.47 100.07 377.79L100.1 377.51Z" fill="#717A8D" fill-opacity="1.000000" fill-rule="evenodd"/>
		</g>
		<rect id="Div [framer-yyb4ck]" width="269.000000" height="43.750000" transform="translate(19.000000 300.015625)" fill="#FFFFFF" fill-opacity="1.000000"/>
		<g clip-path="url(#clip1_65)">
			<rect id="Div" width="269.000000" height="43.750000" transform="translate(19.000000 300.015625)" stroke="#EEEEEE" stroke-opacity="1.000000" stroke-width="0.000000"/>
			<path id="PM Routine ðŸŒƒ" d="M91.49 317.86C91.49 318.23 91.17 318.53 90.78 318.53C90.39 318.53 90.07 318.23 90.07 317.86C90.07 317.49 90.39 317.18 90.78 317.18C91.17 317.18 91.49 317.49 91.49 317.86ZM44.09 326.1L43.04 326.1L43.04 317.45L45.97 317.45C48 317.45 48.91 318.66 48.91 320.19C48.91 321.72 48 322.94 45.98 322.94L44.09 322.94L44.09 326.1ZM50.6 326.1L50.6 317.45L51.85 317.45L54.79 324.64L54.89 324.64L57.83 317.45L59.08 317.45L59.08 326.1L58.1 326.1L58.1 319.53L58.02 319.53L55.31 326.1L54.37 326.1L51.66 319.53L51.58 319.53L51.58 326.1L50.6 326.1ZM65.57 326.1L64.53 326.1L64.53 317.45L67.45 317.45C69.48 317.45 70.39 318.57 70.39 320.11C70.39 321.25 69.88 322.15 68.78 322.53L70.73 326.1L69.51 326.1L67.69 322.72C67.62 322.72 67.54 322.72 67.47 322.72L65.57 322.72L65.57 326.1ZM87.38 319.62L88.77 319.62L88.77 320.46L87.38 320.46L87.38 324.25C87.38 325.09 87.8 325.23 88.24 325.23C88.46 325.23 88.6 325.19 88.68 325.18L88.89 326.07C88.75 326.12 88.51 326.19 88.14 326.19C87.3 326.19 86.38 325.65 86.38 324.52L86.38 320.46L85.4 320.46L85.4 319.62L86.38 319.62L86.38 318.06L87.38 318.06L87.38 319.62ZM44.09 318.38L44.09 322.01L45.95 322.01C47.34 322.01 47.88 321.23 47.88 320.19C47.88 319.15 47.34 318.38 45.93 318.38L44.09 318.38ZM65.57 318.38L65.57 321.78L67.43 321.78C68.82 321.78 69.36 321.14 69.36 320.11C69.36 319.07 68.82 318.38 67.42 318.38L65.57 318.38ZM77.51 322.9C77.51 324.91 76.33 326.24 74.57 326.24C72.81 326.24 71.63 324.91 71.63 322.9C71.63 320.86 72.81 319.53 74.57 319.53C76.33 319.53 77.51 320.86 77.51 322.9ZM95.75 320.43C94.79 320.43 94.09 321.07 94.09 322.2L94.09 326.1L93.09 326.1L93.09 319.62L94.06 319.62L94.06 320.63L94.14 320.63C94.45 319.97 95.05 319.53 96.04 319.53C97.35 319.53 98.23 320.32 98.23 321.98L98.23 326.1L97.24 326.1L97.24 322.05C97.24 321.03 96.67 320.43 95.75 320.43ZM105.37 324.6C105.06 325.58 104.1 326.24 102.78 326.24C100.9 326.24 99.75 324.91 99.75 322.91C99.75 320.92 100.92 319.53 102.68 319.53C104.03 319.53 105.47 320.36 105.47 322.78L105.47 323.2L100.76 323.2C100.8 324.59 101.61 325.34 102.78 325.34C103.56 325.34 104.15 325.01 104.4 324.33L105.37 324.6ZM81.45 325.23C82.19 325.23 83.12 324.67 83.12 323.45L83.12 319.62L84.12 319.62L84.12 326.1L83.12 326.1L83.12 325.01L83.05 325.01C82.75 325.67 82.11 326.19 81.13 326.19C79.91 326.19 79.03 325.4 79.03 323.74L79.03 319.62L80.03 319.62L80.03 323.67C80.03 324.62 80.62 325.23 81.45 325.23ZM91.27 326.1L90.27 326.1L90.27 319.62L91.27 319.62L91.27 326.1ZM72.62 322.9C72.62 324.2 73.23 325.34 74.57 325.34C75.9 325.34 76.51 324.2 76.51 322.9C76.51 321.59 75.9 320.43 74.57 320.43C73.23 320.43 72.62 321.59 72.62 322.9ZM102.68 320.43C101.54 320.43 100.82 321.33 100.76 322.34L104.45 322.34C104.45 321.24 103.76 320.43 102.68 320.43Z" fill="#333335" fill-opacity="1.000000" fill-rule="evenodd"/>
			<rect id="Icon" width="14.000000" height="14.000000" transform="translate(19.000000 314.890625)" fill="#FFFFFF" fill-opacity="0"/>
			<g clip-path="url(#clip1_70)">
				<rect id="svg-64306230_252" width="14.000000" height="14.000000" transform="translate(19.000000 314.890625)" fill="#FFFFFF" fill-opacity="0"/>
				<g clip-path="url(#clip1_71)">
					<path id="Vector" d="M22.9 320.16L26.03 323.29L29.16 320.16" stroke="#333335" stroke-opacity="1.000000" stroke-width="0.782372" stroke-linejoin="round" stroke-linecap="round"/>
				</g>
			</g>
		</g>
		<rect id="Div [framer-1upbknd]" width="247.000000" height="46.900002" transform="translate(41.000000 253.125000)" fill="#FFFFFF" fill-opacity="1.000000"/>
		<g clip-path="url(#clip1_74)">
			<rect id="Div" rx="7.500000" width="15.000000" height="15.000000" transform="translate(41.500000 269.062500)" stroke="#717A8D" stroke-opacity="1.000000" stroke-width="1.000000"/>
			<rect id="Div" width="247.000000" height="46.880001" transform="translate(41.000000 253.125000)" stroke="#EEEEEE" stroke-opacity="1.000000" stroke-width="0.000000"/>
			<path id="Take vitamins" d="M108.7 267.86C108.7 268.23 108.38 268.53 108 268.53C107.61 268.53 107.28 268.23 107.28 267.86C107.28 267.49 107.61 267.18 108 267.18C108.38 267.18 108.7 267.49 108.7 267.86ZM132.91 267.86C132.91 268.23 132.59 268.53 132.2 268.53C131.81 268.53 131.49 268.23 131.49 267.86C131.49 267.49 131.81 267.18 132.2 267.18C132.59 267.18 132.91 267.49 132.91 267.86ZM73.29 268.38L70.57 268.38L70.57 267.45L77.06 267.45L77.06 268.38L74.34 268.38L74.34 276.1L73.29 276.1L73.29 268.38ZM85.38 276.1L84.38 276.1L84.38 267.45L85.38 267.45L85.38 272.51L85.49 272.51L88.34 269.62L89.57 269.62L86.83 272.39L89.77 276.1L88.5 276.1L86.07 273.03L85.38 273.68L85.38 276.1ZM111.75 269.62L113.13 269.62L113.13 270.46L111.75 270.46L111.75 274.25C111.75 275.09 112.17 275.23 112.61 275.23C112.83 275.23 112.97 275.19 113.05 275.18L113.25 276.07C113.12 276.12 112.88 276.19 112.51 276.19C111.66 276.19 110.75 275.65 110.75 274.52L110.75 270.46L109.77 270.46L109.77 269.62L110.75 269.62L110.75 268.06L111.75 268.06L111.75 269.62ZM81.51 275.23C81.3 275.65 80.71 276.26 79.58 276.26C78.35 276.26 77.36 275.53 77.36 274.26C77.36 272.78 78.68 272.51 79.88 272.35C81.07 272.2 81.56 272.24 81.56 271.76L81.56 271.73C81.56 270.9 81.11 270.41 80.19 270.41C79.24 270.41 78.72 270.92 78.5 271.39L77.55 271.05C78.06 269.87 79.17 269.53 80.15 269.53C80.98 269.53 82.56 269.77 82.56 271.83L82.56 276.1L81.56 276.1L81.56 275.23L81.51 275.23ZM95.89 274.6C95.59 275.58 94.62 276.24 93.31 276.24C91.43 276.24 90.28 274.91 90.28 272.91C90.28 270.92 91.45 269.53 93.2 269.53C94.55 269.53 95.99 270.36 95.99 272.78L95.99 273.2L91.28 273.2C91.33 274.59 92.13 275.34 93.31 275.34C94.09 275.34 94.67 275.01 94.93 274.33L95.89 274.6ZM118.47 275.23C118.27 275.65 117.68 276.26 116.55 276.26C115.31 276.26 114.33 275.53 114.33 274.26C114.33 272.78 115.65 272.51 116.85 272.35C118.04 272.2 118.52 272.24 118.52 271.76L118.52 271.73C118.52 270.9 118.07 270.41 117.16 270.41C116.21 270.41 115.69 270.92 115.46 271.39L114.52 271.05C115.03 269.87 116.14 269.53 117.12 269.53C117.95 269.53 119.52 269.77 119.52 271.83L119.52 276.1L118.52 276.1L118.52 275.23L118.47 275.23ZM122.34 276.1L121.35 276.1L121.35 269.62L122.31 269.62L122.31 270.63L122.4 270.63C122.67 269.93 123.29 269.53 124.14 269.53C124.99 269.53 125.56 269.93 125.88 270.63L125.95 270.63C126.28 269.96 126.96 269.53 127.89 269.53C129.05 269.53 129.87 270.24 129.87 271.76L129.87 276.1L128.87 276.1L128.87 271.76C128.87 270.8 128.26 270.43 127.55 270.43C126.64 270.43 126.12 271.04 126.12 271.88L126.12 276.1L125.1 276.1L125.1 271.66C125.1 270.92 124.57 270.43 123.82 270.43C123.04 270.43 122.34 271.1 122.34 272.05L122.34 276.1ZM137.17 270.43C136.21 270.43 135.51 271.07 135.51 272.2L135.51 276.1L134.52 276.1L134.52 269.62L135.48 269.62L135.48 270.63L135.56 270.63C135.87 269.97 136.48 269.53 137.46 269.53C138.77 269.53 139.65 270.32 139.65 271.98L139.65 276.1L138.66 276.1L138.66 272.05C138.66 271.03 138.09 270.43 137.17 270.43ZM143.78 269.53C145.06 269.53 145.76 270.15 146.08 271.07L145.18 271.32C145.01 270.87 144.65 270.39 143.78 270.39C142.98 270.39 142.39 270.8 142.39 271.35C142.39 271.85 142.74 272.11 143.51 272.3L144.47 272.54C145.63 272.82 146.19 273.39 146.19 274.29C146.19 275.42 145.17 276.24 143.66 276.24C142.33 276.24 141.42 275.65 141.19 274.55L142.14 274.31C142.32 275.01 142.83 275.36 143.64 275.36C144.57 275.36 145.17 274.91 145.17 274.35C145.17 273.9 144.86 273.59 144.2 273.44L143.12 273.18C141.93 272.9 141.39 272.3 141.39 271.41C141.39 270.31 142.41 269.53 143.78 269.53ZM105.09 269.62L106.17 269.62L103.77 276.1L102.75 276.1L100.36 269.62L101.44 269.62L103.23 274.79L103.3 274.79L105.09 269.62ZM108.48 276.1L107.49 276.1L107.49 269.62L108.48 269.62L108.48 276.1ZM132.69 276.1L131.69 276.1L131.69 269.62L132.69 269.62L132.69 276.1ZM93.2 270.43C92.06 270.43 91.35 271.33 91.28 272.34L94.98 272.34C94.98 271.24 94.28 270.43 93.2 270.43ZM78.36 274.31C78.36 275.01 78.94 275.36 79.73 275.36C80.91 275.36 81.56 274.57 81.56 273.76L81.56 272.84C81.39 273.05 80.25 273.17 79.83 273.21C79.05 273.32 78.36 273.55 78.36 274.31ZM115.33 274.31C115.33 275.01 115.91 275.36 116.7 275.36C117.88 275.36 118.52 274.57 118.52 273.76L118.52 272.84C118.36 273.05 117.22 273.17 116.8 273.21C116.02 273.32 115.33 273.55 115.33 274.31Z" fill="#333335" fill-opacity="1.000000" fill-rule="evenodd"/>
			<path id="Weekdays" d="M72.2 287.57L71.56 287.57L70.15 282.41L70.78 282.41L71.86 286.61L71.91 286.61L73.01 282.41L73.72 282.41L74.82 286.61L74.87 286.61L75.95 282.41L76.58 282.41L75.17 287.57L74.52 287.57L73.38 283.46L73.34 283.46L72.2 287.57ZM85.07 287.57L84.48 287.57L84.48 282.41L85.07 282.41L85.07 285.43L85.14 285.43L86.84 283.7L87.58 283.7L85.94 285.35L87.7 287.57L86.94 287.57L85.49 285.74L85.07 286.12L85.07 287.57ZM90.54 286.98C90.41 287.19 90.15 287.65 89.41 287.65C88.44 287.65 87.76 286.88 87.76 285.65C87.76 284.43 88.44 283.65 89.42 283.65C90.18 283.65 90.41 284.11 90.54 284.32L90.59 284.32L90.59 282.41L91.18 282.41L91.18 287.57L90.61 287.57L90.61 286.98L90.54 286.98ZM79.85 286.68C79.66 287.26 79.09 287.65 78.3 287.65C77.18 287.65 76.5 286.86 76.5 285.67C76.5 284.48 77.19 283.65 78.24 283.65C79.05 283.65 79.91 284.14 79.91 285.59L79.91 285.84L77.09 285.84C77.12 286.67 77.6 287.12 78.3 287.12C78.77 287.12 79.12 286.92 79.27 286.51L79.85 286.68ZM83.75 286.68C83.56 287.26 82.99 287.65 82.2 287.65C81.08 287.65 80.4 286.86 80.4 285.67C80.4 284.48 81.09 283.65 82.14 283.65C82.95 283.65 83.81 284.14 83.81 285.59L83.81 285.84L80.99 285.84C81.02 286.67 81.5 287.12 82.2 287.12C82.67 287.12 83.02 286.92 83.17 286.51L83.75 286.68ZM94.41 287.05C94.29 287.3 93.93 287.66 93.26 287.66C92.52 287.66 91.94 287.23 91.94 286.47C91.94 285.59 92.72 285.43 93.44 285.33C94.15 285.24 94.44 285.27 94.44 284.98L94.44 284.96C94.44 284.47 94.17 284.17 93.62 284.17C93.05 284.17 92.74 284.48 92.61 284.76L92.05 284.56C92.35 283.85 93.02 283.65 93.6 283.65C94.1 283.65 95.03 283.79 95.03 285.02L95.03 287.57L94.44 287.57L94.44 287.05L94.41 287.05ZM100.84 283.65C101.6 283.65 102.02 284.02 102.21 284.57L101.67 284.72C101.57 284.45 101.36 284.16 100.84 284.16C100.36 284.16 100.01 284.41 100.01 284.74C100.01 285.04 100.22 285.19 100.68 285.3L101.25 285.44C101.94 285.61 102.28 285.95 102.28 286.49C102.28 287.16 101.67 287.65 100.77 287.65C99.98 287.65 99.43 287.3 99.29 286.65L99.86 286.5C99.96 286.92 100.27 287.13 100.76 287.13C101.31 287.13 101.67 286.86 101.67 286.52C101.67 286.26 101.48 286.07 101.09 285.98L100.45 285.83C99.73 285.66 99.42 285.3 99.42 284.77C99.42 284.11 100.02 283.65 100.84 283.65ZM97.27 288.14C97.04 288.74 96.67 289.03 96.13 289.03C95.93 289.03 95.76 288.99 95.7 288.96L95.85 288.43C96.28 288.54 96.55 288.49 96.77 287.9L96.88 287.59L95.45 283.7L96.09 283.7L97.16 286.79L97.2 286.79L98.27 283.7L98.91 283.7L97.27 288.14ZM78.24 284.18C77.56 284.18 77.13 284.72 77.09 285.32L79.3 285.32C79.3 284.67 78.89 284.18 78.24 284.18ZM82.14 284.18C81.46 284.18 81.03 284.72 80.99 285.32L83.2 285.32C83.2 284.67 82.79 284.18 82.14 284.18ZM88.36 285.64C88.36 286.46 88.74 287.12 89.49 287.12C90.2 287.12 90.6 286.51 90.6 285.64C90.6 284.77 90.21 284.18 89.49 284.18C88.73 284.18 88.36 284.82 88.36 285.64ZM92.53 286.5C92.53 286.92 92.88 287.13 93.35 287.13C94.05 287.13 94.44 286.66 94.44 286.17L94.44 285.63C94.34 285.75 93.66 285.82 93.41 285.85C92.95 285.91 92.53 286.05 92.53 286.5Z" fill="#717A8D" fill-opacity="1.000000" fill-rule="evenodd"/>
		</g>
		<rect id="Div [framer-1p3daje]" width="247.000000" height="46.900002" transform="translate(41.000000 206.234375)" fill="#FFFFFF" fill-opacity="1.000000"/>
		<g clip-path="url(#clip1_83)">
			<rect id="Div" rx="7.500000" width="15.000000" height="15.000000" transform="translate(41.500000 222.171875)" stroke="#717A8D" stroke-opacity="1.000000" stroke-width="1.000000"/>
			<rect id="Div" width="247.000000" height="46.880001" transform="translate(41.000000 206.234375)" stroke="#EEEEEE" stroke-opacity="1.000000" stroke-width="0.000000"/>
			<path id="Read a chapter" d="M72.09 229.21L71.04 229.21L71.04 220.56L73.97 220.56C75.99 220.56 76.91 221.68 76.91 223.22C76.91 224.36 76.39 225.26 75.29 225.64L77.25 229.21L76.03 229.21L74.2 225.83C74.13 225.83 74.06 225.83 73.98 225.83L72.09 225.83L72.09 229.21ZM96.43 228.22C96.21 228.57 95.79 229.35 94.54 229.35C92.92 229.35 91.78 228.05 91.78 225.99C91.78 223.94 92.92 222.64 94.56 222.64C95.82 222.64 96.21 223.42 96.43 223.76L96.52 223.76L96.52 220.56L97.51 220.56L97.51 229.21L96.55 229.21L96.55 228.22L96.43 228.22ZM122.23 223.54C121.24 223.54 120.52 224.18 120.52 225.31L120.52 229.21L119.52 229.21L119.52 220.56L120.52 220.56L120.52 223.74L120.61 223.74C120.91 223.07 121.49 222.64 122.51 222.64C123.84 222.64 124.73 223.42 124.73 225.09L124.73 229.21L123.73 229.21L123.73 225.16C123.73 224.13 123.17 223.54 122.23 223.54ZM141.95 222.72L143.34 222.72L143.34 223.57L141.95 223.57L141.95 227.36C141.95 228.2 142.38 228.33 142.81 228.33C143.03 228.33 143.17 228.3 143.25 228.29L143.46 229.18C143.32 229.23 143.09 229.3 142.72 229.3C141.87 229.3 140.95 228.76 140.95 227.63L140.95 223.57L139.98 223.57L139.98 222.72L140.95 222.72L140.95 221.17L141.95 221.17L141.95 222.72ZM72.09 221.49L72.09 224.89L73.95 224.89C75.34 224.89 75.88 224.25 75.88 223.22C75.88 222.18 75.34 221.49 73.93 221.49L72.09 221.49ZM152.7 229.21L151.71 229.21L151.71 222.72L152.67 222.72L152.67 223.7L152.74 223.7C152.98 223.06 153.65 222.62 154.43 222.62C154.58 222.62 154.84 222.63 154.95 222.64L154.95 223.65C154.88 223.64 154.61 223.59 154.34 223.59C153.4 223.59 152.7 224.23 152.7 225.11L152.7 229.21ZM83.75 227.71C83.45 228.69 82.49 229.35 81.17 229.35C79.29 229.35 78.14 228.01 78.14 226.02C78.14 224.03 79.31 222.64 81.07 222.64C82.42 222.64 83.86 223.47 83.86 225.89L83.86 226.31L79.14 226.31C79.19 227.7 80 228.45 81.17 228.45C81.95 228.45 82.54 228.12 82.79 227.44L83.75 227.71ZM89.21 228.33C89.01 228.76 88.42 229.37 87.29 229.37C86.05 229.37 85.07 228.64 85.07 227.37C85.07 225.89 86.39 225.62 87.59 225.46C88.78 225.31 89.26 225.35 89.26 224.87L89.26 224.84C89.26 224.01 88.81 223.52 87.9 223.52C86.95 223.52 86.43 224.03 86.2 224.5L85.26 224.16C85.77 222.98 86.88 222.64 87.86 222.64C88.69 222.64 90.26 222.88 90.26 224.94L90.26 229.21L89.26 229.21L89.26 228.33L89.21 228.33ZM106.66 228.33C106.46 228.76 105.86 229.37 104.73 229.37C103.5 229.37 102.52 228.64 102.52 227.37C102.52 225.89 103.83 225.62 105.04 225.46C106.22 225.31 106.71 225.35 106.71 224.87L106.71 224.84C106.71 224.01 106.26 223.52 105.34 223.52C104.39 223.52 103.87 224.03 103.65 224.5L102.7 224.16C103.21 222.98 104.33 222.64 105.31 222.64C106.14 222.64 107.71 222.88 107.71 224.94L107.71 229.21L106.71 229.21L106.71 228.33L106.66 228.33ZM118.07 227.32C117.9 228.47 116.95 229.35 115.52 229.35C113.69 229.35 112.57 227.95 112.57 226C112.57 224.03 113.74 222.64 115.5 222.64C116.87 222.64 117.9 223.45 118.07 224.67L117.07 224.67C116.92 224.08 116.39 223.54 115.52 223.54C114.35 223.54 113.57 224.5 113.57 225.97C113.57 227.47 114.33 228.45 115.52 228.45C116.29 228.45 116.89 228.03 117.07 227.32L118.07 227.32ZM130.39 228.33C130.19 228.76 129.6 229.37 128.47 229.37C127.23 229.37 126.25 228.64 126.25 227.37C126.25 225.89 127.56 225.62 128.77 225.46C129.95 225.31 130.44 225.35 130.44 224.87L130.44 224.84C130.44 224.01 129.99 223.52 129.07 223.52C128.12 223.52 127.6 224.03 127.38 224.5L126.43 224.16C126.94 222.98 128.06 222.64 129.04 222.64C129.87 222.64 131.44 222.88 131.44 224.94L131.44 229.21L130.44 229.21L130.44 228.33L130.39 228.33ZM134.26 231.65L133.26 231.65L133.26 222.72L134.23 222.72L134.23 223.76L134.35 223.76C134.57 223.42 134.96 222.64 136.22 222.64C137.86 222.64 139 223.94 139 225.99C139 228.05 137.86 229.35 136.24 229.35C134.99 229.35 134.57 228.57 134.35 228.22L134.26 228.22L134.26 231.65ZM150.08 227.71C149.78 228.69 148.82 229.35 147.5 229.35C145.62 229.35 144.47 228.01 144.47 226.02C144.47 224.03 145.64 222.64 147.4 222.64C148.75 222.64 150.19 223.47 150.19 225.89L150.19 226.31L145.47 226.31C145.52 227.7 146.33 228.45 147.5 228.45C148.28 228.45 148.87 228.12 149.12 227.44L150.08 227.71ZM81.07 223.54C79.93 223.54 79.21 224.44 79.14 225.45L82.84 225.45C82.84 224.35 82.15 223.54 81.07 223.54ZM92.78 225.97C92.78 227.36 93.42 228.45 94.67 228.45C95.87 228.45 96.53 227.44 96.53 225.97C96.53 224.52 95.89 223.54 94.67 223.54C93.41 223.54 92.78 224.6 92.78 225.97ZM136.11 223.54C134.89 223.54 134.25 224.52 134.25 225.97C134.25 227.44 134.91 228.45 136.11 228.45C137.36 228.45 138 227.36 138 225.97C138 224.6 137.37 223.54 136.11 223.54ZM147.4 223.54C146.25 223.54 145.54 224.44 145.47 225.45L149.17 225.45C149.17 224.35 148.48 223.54 147.4 223.54ZM86.07 227.42C86.07 228.12 86.65 228.47 87.44 228.47C88.62 228.47 89.26 227.68 89.26 226.86L89.26 225.95C89.1 226.16 87.96 226.27 87.54 226.32C86.76 226.43 86.07 226.66 86.07 227.42ZM103.52 227.42C103.52 228.12 104.09 228.47 104.88 228.47C106.07 228.47 106.71 227.68 106.71 226.86L106.71 225.95C106.54 226.16 105.41 226.27 104.99 226.32C104.21 226.43 103.52 226.66 103.52 227.42ZM127.25 227.42C127.25 228.12 127.82 228.47 128.62 228.47C129.8 228.47 130.44 227.68 130.44 226.86L130.44 225.95C130.27 226.16 129.14 226.27 128.72 226.32C127.94 226.43 127.25 226.66 127.25 227.42Z" fill="#333335" fill-opacity="1.000000" fill-rule="evenodd"/>
			<path id="Weekdays" d="M72.2 240.68L71.56 240.68L70.15 235.52L70.78 235.52L71.86 239.72L71.91 239.72L73.01 235.52L73.72 235.52L74.82 239.72L74.87 239.72L75.95 235.52L76.58 235.52L75.17 240.68L74.52 240.68L73.38 236.57L73.34 236.57L72.2 240.68ZM85.07 240.68L84.48 240.68L84.48 235.52L85.07 235.52L85.07 238.54L85.14 238.54L86.84 236.81L87.58 236.81L85.94 238.46L87.7 240.68L86.94 240.68L85.49 238.85L85.07 239.23L85.07 240.68ZM90.54 240.09C90.41 240.3 90.15 240.76 89.41 240.76C88.44 240.76 87.76 239.99 87.76 238.76C87.76 237.54 88.44 236.76 89.42 236.76C90.18 236.76 90.41 237.22 90.54 237.43L90.59 237.43L90.59 235.52L91.18 235.52L91.18 240.68L90.61 240.68L90.61 240.09L90.54 240.09ZM79.85 239.78C79.66 240.37 79.09 240.76 78.3 240.76C77.18 240.76 76.5 239.97 76.5 238.78C76.5 237.59 77.19 236.76 78.24 236.76C79.05 236.76 79.91 237.25 79.91 238.7L79.91 238.95L77.09 238.95C77.12 239.78 77.6 240.23 78.3 240.23C78.77 240.23 79.12 240.03 79.27 239.62L79.85 239.78ZM83.75 239.78C83.56 240.37 82.99 240.76 82.2 240.76C81.08 240.76 80.4 239.97 80.4 238.78C80.4 237.59 81.09 236.76 82.14 236.76C82.95 236.76 83.81 237.25 83.81 238.7L83.81 238.95L80.99 238.95C81.02 239.78 81.5 240.23 82.2 240.23C82.67 240.23 83.02 240.03 83.17 239.62L83.75 239.78ZM94.41 240.16C94.29 240.41 93.93 240.77 93.26 240.77C92.52 240.77 91.94 240.34 91.94 239.58C91.94 238.7 92.72 238.54 93.44 238.44C94.15 238.35 94.44 238.38 94.44 238.09L94.44 238.07C94.44 237.57 94.17 237.28 93.62 237.28C93.05 237.28 92.74 237.59 92.61 237.87L92.05 237.67C92.35 236.96 93.02 236.76 93.6 236.76C94.1 236.76 95.03 236.9 95.03 238.13L95.03 240.68L94.44 240.68L94.44 240.16L94.41 240.16ZM100.84 236.76C101.6 236.76 102.02 237.13 102.21 237.68L101.67 237.83C101.57 237.56 101.36 237.27 100.84 237.27C100.36 237.27 100.01 237.52 100.01 237.85C100.01 238.15 100.22 238.3 100.68 238.41L101.25 238.55C101.94 238.72 102.28 239.06 102.28 239.6C102.28 240.27 101.67 240.76 100.77 240.76C99.98 240.76 99.43 240.41 99.29 239.76L99.86 239.61C99.96 240.03 100.27 240.24 100.76 240.24C101.31 240.24 101.67 239.97 101.67 239.63C101.67 239.37 101.48 239.18 101.09 239.09L100.45 238.94C99.73 238.77 99.42 238.41 99.42 237.88C99.42 237.22 100.02 236.76 100.84 236.76ZM97.27 241.25C97.04 241.85 96.67 242.14 96.13 242.14C95.93 242.14 95.76 242.1 95.7 242.06L95.85 241.54C96.28 241.65 96.55 241.6 96.77 241.01L96.88 240.7L95.45 236.81L96.09 236.81L97.16 239.9L97.2 239.9L98.27 236.81L98.91 236.81L97.27 241.25ZM78.24 237.29C77.56 237.29 77.13 237.83 77.09 238.43L79.3 238.43C79.3 237.78 78.89 237.29 78.24 237.29ZM82.14 237.29C81.46 237.29 81.03 237.83 80.99 238.43L83.2 238.43C83.2 237.78 82.79 237.29 82.14 237.29ZM88.36 238.75C88.36 239.57 88.74 240.23 89.49 240.23C90.2 240.23 90.6 239.62 90.6 238.75C90.6 237.88 90.21 237.29 89.49 237.29C88.73 237.29 88.36 237.93 88.36 238.75ZM92.53 239.61C92.53 240.03 92.88 240.24 93.35 240.24C94.05 240.24 94.44 239.77 94.44 239.28L94.44 238.74C94.34 238.86 93.66 238.93 93.41 238.96C92.95 239.02 92.53 239.16 92.53 239.61Z" fill="#717A8D" fill-opacity="1.000000" fill-rule="evenodd"/>
		</g>
		<rect id="Div [framer-1untyoq]" width="247.000000" height="46.900002" transform="translate(41.000000 159.343750)" fill="#FFFFFF" fill-opacity="1.000000"/>
		<g clip-path="url(#clip1_92)">
			<rect id="Div" rx="7.500000" width="15.000000" height="15.000000" transform="translate(41.500000 175.281250)" stroke="#717A8D" stroke-opacity="1.000000" stroke-width="1.000000"/>
			<rect id="Div [framer-1kwf31m]" rx="4.500000" width="9.000000" height="9.000000" transform="translate(44.000000 177.781250)" fill="#717A8D" fill-opacity="1.000000"/>
			<rect id="Div" width="247.000000" height="46.880001" transform="translate(41.000000 159.343750)" stroke="#EEEEEE" stroke-opacity="1.000000" stroke-width="0.000000"/>
			<path id="Drink a glass of water" d="M154.67 175.83L156.12 175.83L156.12 176.68L154.67 176.68L154.67 182.32L153.67 182.32L153.67 176.68L152.62 176.68L152.62 175.83L153.67 175.83L153.67 174.94C153.67 173.82 154.56 173.26 155.49 173.26C155.98 173.26 156.29 173.36 156.44 173.43L156.15 174.29C156.05 174.26 155.88 174.19 155.6 174.19C154.94 174.19 154.67 174.53 154.67 175.17L154.67 175.83ZM85.11 174.08C85.11 174.45 84.79 174.75 84.4 174.75C84.01 174.75 83.69 174.45 83.69 174.08C83.69 173.7 84.01 173.4 84.4 173.4C84.79 173.4 85.11 173.7 85.11 174.08ZM77.84 177.98C77.84 180.69 76.35 182.32 73.71 182.32L71.04 182.32L71.04 173.67L73.83 173.67C76.35 173.67 77.84 175.29 77.84 177.98ZM94.67 182.32L93.68 182.32L93.68 173.67L94.67 173.67L94.67 178.72L94.79 178.72L97.63 175.83L98.87 175.83L96.12 178.61L99.07 182.32L97.8 182.32L95.37 179.25L94.67 179.9L94.67 182.32ZM120.81 173.67L121.8 173.67L121.8 182.32L120.81 182.32L120.81 173.67ZM178.69 175.83L180.07 175.83L180.07 176.68L178.69 176.68L178.69 180.46C178.69 181.31 179.11 181.44 179.55 181.44C179.77 181.44 179.9 181.41 179.99 181.39L180.19 182.29C180.05 182.34 179.82 182.41 179.45 182.41C178.6 182.41 177.69 181.87 177.69 180.74L177.69 176.68L176.71 176.68L176.71 175.83L177.69 175.83L177.69 174.28L178.69 174.28L178.69 175.83ZM72.09 174.6L72.09 181.39L73.65 181.39C75.79 181.39 76.83 180.09 76.83 177.98C76.83 175.88 75.79 174.6 73.76 174.6L72.09 174.6ZM80.46 182.32L79.46 182.32L79.46 175.83L80.42 175.83L80.42 176.81L80.49 176.81C80.73 176.17 81.4 175.73 82.18 175.73C82.33 175.73 82.59 175.74 82.71 175.75L82.71 176.76C82.64 176.75 82.36 176.7 82.1 176.7C81.15 176.7 80.46 177.34 80.46 178.22L80.46 182.32ZM189.43 182.32L188.44 182.32L188.44 175.83L189.4 175.83L189.4 176.81L189.47 176.81C189.71 176.17 190.38 175.73 191.16 175.73C191.31 175.73 191.57 175.74 191.68 175.75L191.68 176.76C191.62 176.75 191.34 176.7 191.08 176.7C190.13 176.7 189.43 177.34 189.43 178.22L189.43 182.32ZM89.37 176.64C88.41 176.64 87.71 177.29 87.71 178.42L87.71 182.32L86.71 182.32L86.71 175.83L87.68 175.83L87.68 176.85L87.76 176.85C88.07 176.19 88.67 175.75 89.66 175.75C90.97 175.75 91.85 176.54 91.85 178.2L91.85 182.32L90.85 182.32L90.85 178.27C90.85 177.25 90.29 176.64 89.37 176.64ZM107.34 181.44C107.13 181.87 106.54 182.48 105.41 182.48C104.17 182.48 103.19 181.75 103.19 180.48C103.19 178.99 104.51 178.73 105.71 178.57C106.9 178.42 107.38 178.46 107.38 177.98L107.38 177.95C107.38 177.12 106.93 176.63 106.02 176.63C105.07 176.63 104.55 177.14 104.33 177.61L103.38 177.27C103.89 176.09 105 175.75 105.98 175.75C106.81 175.75 108.38 175.98 108.38 178.05L108.38 182.32L107.38 182.32L107.38 181.44L107.34 181.44ZM118.98 182.51C118.98 184.18 117.73 184.89 116.18 184.89C114.73 184.89 113.93 184.27 113.52 183.59L114.32 183.03C114.58 183.39 115 184.02 116.18 184.02C117.22 184.02 117.99 183.52 117.99 182.44L117.99 181.12L117.9 181.12C117.68 181.48 117.27 182.22 116.01 182.22C114.44 182.22 113.25 181.07 113.25 179.04C113.25 177.05 114.38 175.75 116.02 175.75C117.29 175.75 117.7 176.53 117.92 176.87L118.02 176.87L118.02 175.83L118.98 175.83L118.98 182.51ZM127.47 181.44C127.26 181.87 126.67 182.48 125.54 182.48C124.31 182.48 123.32 181.75 123.32 180.48C123.32 178.99 124.64 178.73 125.84 178.57C127.03 178.42 127.52 178.46 127.52 177.98L127.52 177.95C127.52 177.12 127.07 176.63 126.15 176.63C125.2 176.63 124.68 177.14 124.46 177.61L123.51 177.27C124.02 176.09 125.13 175.75 126.11 175.75C126.94 175.75 128.52 175.98 128.52 178.05L128.52 182.32L127.52 182.32L127.52 181.44L127.47 181.44ZM132.64 175.75C133.92 175.75 134.63 176.37 134.94 177.29L134.04 177.54C133.87 177.09 133.51 176.61 132.64 176.61C131.85 176.61 131.25 177.02 131.25 177.57C131.25 178.07 131.6 178.33 132.37 178.52L133.33 178.76C134.49 179.04 135.06 179.61 135.06 180.51C135.06 181.64 134.03 182.46 132.52 182.46C131.19 182.46 130.28 181.87 130.05 180.77L131 180.53C131.18 181.23 131.69 181.58 132.5 181.58C133.43 181.58 134.03 181.12 134.03 180.57C134.03 180.12 133.72 179.81 133.06 179.65L131.98 179.4C130.79 179.12 130.25 178.52 130.25 177.63C130.25 176.53 131.27 175.75 132.64 175.75ZM138.86 175.75C140.14 175.75 140.85 176.37 141.16 177.29L140.26 177.54C140.09 177.09 139.73 176.61 138.86 176.61C138.07 176.61 137.47 177.02 137.47 177.57C137.47 178.07 137.82 178.33 138.59 178.52L139.55 178.76C140.71 179.04 141.28 179.61 141.28 180.51C141.28 181.64 140.25 182.46 138.74 182.46C137.41 182.46 136.5 181.87 136.27 180.77L137.22 180.53C137.4 181.23 137.91 181.58 138.73 181.58C139.65 181.58 140.25 181.12 140.25 180.57C140.25 180.12 139.94 179.81 139.28 179.65L138.2 179.4C137.01 179.12 136.48 178.52 136.48 177.63C136.48 176.53 137.49 175.75 138.86 175.75ZM151.71 179.11C151.71 181.12 150.52 182.46 148.77 182.46C147.01 182.46 145.82 181.12 145.82 179.11C145.82 177.08 147.01 175.75 148.77 175.75C150.52 175.75 151.71 177.08 151.71 179.11ZM174.37 181.44C174.17 181.87 173.58 182.48 172.45 182.48C171.21 182.48 170.23 181.75 170.23 180.48C170.23 178.99 171.55 178.73 172.75 178.57C173.94 178.42 174.42 178.46 174.42 177.98L174.42 177.95C174.42 177.12 173.97 176.63 173.06 176.63C172.11 176.63 171.59 177.14 171.36 177.61L170.42 177.27C170.93 176.09 172.04 175.75 173.02 175.75C173.85 175.75 175.42 175.98 175.42 178.05L175.42 182.32L174.42 182.32L174.42 181.44L174.37 181.44ZM186.81 180.82C186.51 181.8 185.55 182.46 184.23 182.46C182.35 182.46 181.2 181.12 181.2 179.13C181.2 177.14 182.37 175.75 184.13 175.75C185.48 175.75 186.92 176.58 186.92 178.99L186.92 179.42L182.2 179.42C182.25 180.81 183.06 181.56 184.23 181.56C185.01 181.56 185.6 181.23 185.85 180.55L186.81 180.82ZM84.89 182.32L83.89 182.32L83.89 175.83L84.89 175.83L84.89 182.32ZM163.32 182.32L162.34 182.32L160.36 175.83L161.41 175.83L162.81 180.8L162.88 180.8L164.27 175.83L165.33 175.83L166.7 180.79L166.77 180.79L168.17 175.83L169.22 175.83L167.24 182.32L166.26 182.32L164.84 177.34L164.74 177.34L163.32 182.32ZM114.25 179.03C114.25 180.38 114.89 181.33 116.14 181.33C117.34 181.33 118 180.46 118 179.03C118 177.63 117.36 176.64 116.14 176.64C114.87 176.64 114.25 177.71 114.25 179.03ZM146.82 179.11C146.82 180.42 147.43 181.56 148.77 181.56C150.1 181.56 150.71 180.42 150.71 179.11C150.71 177.81 150.1 176.64 148.77 176.64C147.43 176.64 146.82 177.81 146.82 179.11ZM184.13 176.64C182.99 176.64 182.27 177.55 182.2 178.56L185.9 178.56C185.9 177.46 185.21 176.64 184.13 176.64ZM104.19 180.53C104.19 181.23 104.77 181.58 105.56 181.58C106.74 181.58 107.38 180.79 107.38 179.97L107.38 179.06C107.22 179.26 106.08 179.38 105.66 179.43C104.88 179.54 104.19 179.77 104.19 180.53ZM124.32 180.53C124.32 181.23 124.9 181.58 125.69 181.58C126.87 181.58 127.52 180.79 127.52 179.97L127.52 179.06C127.35 179.26 126.22 179.38 125.79 179.43C125.02 179.54 124.32 179.77 124.32 180.53ZM171.23 180.53C171.23 181.23 171.81 181.58 172.6 181.58C173.78 181.58 174.42 180.79 174.42 179.97L174.42 179.06C174.26 179.26 173.12 179.38 172.7 179.43C171.92 179.54 171.23 179.77 171.23 180.53Z" fill="#333335" fill-opacity="1.000000" fill-rule="evenodd"/>
			<path id="Weekdays" d="M72.2 193.79L71.56 193.79L70.15 188.63L70.78 188.63L71.86 192.83L71.91 192.83L73.01 188.63L73.72 188.63L74.82 192.83L74.87 192.83L75.95 188.63L76.58 188.63L75.17 193.79L74.52 193.79L73.38 189.68L73.34 189.68L72.2 193.79ZM85.07 193.79L84.48 193.79L84.48 188.63L85.07 188.63L85.07 191.64L85.14 191.64L86.84 189.92L87.58 189.92L85.94 191.57L87.7 193.79L86.94 193.79L85.49 191.96L85.07 192.34L85.07 193.79ZM90.54 193.2C90.41 193.41 90.15 193.87 89.41 193.87C88.44 193.87 87.76 193.1 87.76 191.87C87.76 190.65 88.44 189.87 89.42 189.87C90.18 189.87 90.41 190.33 90.54 190.54L90.59 190.54L90.59 188.63L91.18 188.63L91.18 193.79L90.61 193.79L90.61 193.2L90.54 193.2ZM79.85 192.89C79.66 193.48 79.09 193.87 78.3 193.87C77.18 193.87 76.5 193.08 76.5 191.89C76.5 190.7 77.19 189.87 78.24 189.87C79.05 189.87 79.91 190.36 79.91 191.81L79.91 192.06L77.09 192.06C77.12 192.89 77.6 193.34 78.3 193.34C78.77 193.34 79.12 193.14 79.27 192.73L79.85 192.89ZM83.75 192.89C83.56 193.48 82.99 193.87 82.2 193.87C81.08 193.87 80.4 193.08 80.4 191.89C80.4 190.7 81.09 189.87 82.14 189.87C82.95 189.87 83.81 190.36 83.81 191.81L83.81 192.06L80.99 192.06C81.02 192.89 81.5 193.34 82.2 193.34C82.67 193.34 83.02 193.14 83.17 192.73L83.75 192.89ZM94.41 193.27C94.29 193.52 93.93 193.88 93.26 193.88C92.52 193.88 91.94 193.45 91.94 192.69C91.94 191.81 92.72 191.65 93.44 191.55C94.15 191.46 94.44 191.49 94.44 191.2L94.44 191.18C94.44 190.68 94.17 190.39 93.62 190.39C93.05 190.39 92.74 190.7 92.61 190.98L92.05 190.78C92.35 190.07 93.02 189.87 93.6 189.87C94.1 189.87 95.03 190.01 95.03 191.24L95.03 193.79L94.44 193.79L94.44 193.27L94.41 193.27ZM100.84 189.87C101.6 189.87 102.02 190.24 102.21 190.79L101.67 190.94C101.57 190.67 101.36 190.38 100.84 190.38C100.36 190.38 100.01 190.63 100.01 190.96C100.01 191.26 100.22 191.41 100.68 191.52L101.25 191.66C101.94 191.83 102.28 192.17 102.28 192.71C102.28 193.38 101.67 193.87 100.77 193.87C99.98 193.87 99.43 193.52 99.29 192.86L99.86 192.72C99.96 193.14 100.27 193.35 100.76 193.35C101.31 193.35 101.67 193.08 101.67 192.74C101.67 192.48 101.48 192.29 101.09 192.2L100.45 192.05C99.73 191.88 99.42 191.52 99.42 190.99C99.42 190.33 100.02 189.87 100.84 189.87ZM97.27 194.36C97.04 194.96 96.67 195.24 96.13 195.24C95.93 195.24 95.76 195.2 95.7 195.17L95.85 194.65C96.28 194.76 96.55 194.71 96.77 194.11L96.88 193.81L95.45 189.92L96.09 189.92L97.16 193.01L97.2 193.01L98.27 189.92L98.91 189.92L97.27 194.36ZM78.24 190.4C77.56 190.4 77.13 190.94 77.09 191.54L79.3 191.54C79.3 190.89 78.89 190.4 78.24 190.4ZM82.14 190.4C81.46 190.4 81.03 190.94 80.99 191.54L83.2 191.54C83.2 190.89 82.79 190.4 82.14 190.4ZM88.36 191.86C88.36 192.68 88.74 193.34 89.49 193.34C90.2 193.34 90.6 192.73 90.6 191.86C90.6 190.99 90.21 190.4 89.49 190.4C88.73 190.4 88.36 191.04 88.36 191.86ZM92.53 192.72C92.53 193.14 92.88 193.35 93.35 193.35C94.05 193.35 94.44 192.88 94.44 192.39L94.44 191.85C94.34 191.97 93.66 192.04 93.41 192.07C92.95 192.13 92.53 192.27 92.53 192.72Z" fill="#717A8D" fill-opacity="1.000000" fill-rule="evenodd"/>
		</g>
		<rect id="Div [framer-19e1cg0]" width="269.000000" height="43.750000" transform="translate(19.000000 115.593750)" fill="#FFFFFF" fill-opacity="1.000000"/>
		<g clip-path="url(#clip1_103)">
			<rect id="Div" width="269.000000" height="43.750000" transform="translate(19.000000 115.593750)" stroke="#EEEEEE" stroke-opacity="1.000000" stroke-width="0.000000"/>
			<path id="AM Routine ðŸ“" d="M91.98 133.44C91.98 133.81 91.66 134.11 91.27 134.11C90.88 134.11 90.56 133.81 90.56 133.44C90.56 133.06 90.88 132.76 91.27 132.76C91.66 132.76 91.98 133.06 91.98 133.44ZM44.27 139.23L43.4 141.68L42.3 141.68L45.48 133.03L46.56 133.03L49.74 141.68L48.64 141.68L47.77 139.23L44.27 139.23ZM51.09 141.68L51.09 133.03L52.34 133.03L55.28 140.21L55.38 140.21L58.32 133.03L59.57 133.03L59.57 141.68L58.59 141.68L58.59 135.11L58.51 135.11L55.81 141.68L54.86 141.68L52.15 135.11L52.07 135.11L52.07 141.68L51.09 141.68ZM66.06 141.68L65.02 141.68L65.02 133.03L67.94 133.03C69.97 133.03 70.88 134.15 70.88 135.68C70.88 136.83 70.37 137.73 69.27 138.11L71.22 141.68L70 141.68L68.18 138.3C68.11 138.3 68.03 138.3 67.96 138.3L66.06 138.3L66.06 141.68ZM87.87 135.19L89.26 135.19L89.26 136.04L87.87 136.04L87.87 139.82C87.87 140.67 88.29 140.8 88.73 140.8C88.95 140.8 89.09 140.77 89.17 140.75L89.38 141.65C89.24 141.7 89 141.77 88.63 141.77C87.79 141.77 86.87 141.23 86.87 140.09L86.87 136.04L85.89 136.04L85.89 135.19L86.87 135.19L86.87 133.64L87.87 133.64L87.87 135.19ZM66.06 133.96L66.06 137.36L67.92 137.36C69.31 137.36 69.85 136.72 69.85 135.68C69.85 134.64 69.31 133.96 67.91 133.96L66.06 133.96ZM45.98 134.4L44.6 138.3L47.44 138.3L46.05 134.4L45.98 134.4ZM78 138.47C78 140.48 76.82 141.82 75.06 141.82C73.3 141.82 72.12 140.48 72.12 138.47C72.12 136.44 73.3 135.11 75.06 135.11C76.82 135.11 78 136.44 78 138.47ZM96.24 136C95.28 136 94.58 136.64 94.58 137.78L94.58 141.68L93.58 141.68L93.58 135.19L94.55 135.19L94.55 136.21L94.63 136.21C94.94 135.55 95.54 135.11 96.53 135.11C97.84 135.11 98.72 135.9 98.72 137.56L98.72 141.68L97.73 141.68L97.73 137.63C97.73 136.61 97.16 136 96.24 136ZM105.86 140.18C105.55 141.16 104.59 141.82 103.27 141.82C101.39 141.82 100.24 140.48 100.24 138.49C100.24 136.49 101.41 135.11 103.17 135.11C104.52 135.11 105.96 135.94 105.96 138.35L105.96 138.78L101.25 138.78C101.29 140.17 102.1 140.92 103.27 140.92C104.05 140.92 104.64 140.59 104.89 139.91L105.86 140.18ZM81.94 140.8C82.68 140.8 83.61 140.25 83.61 139.03L83.61 135.19L84.61 135.19L84.61 141.68L83.61 141.68L83.61 140.59L83.54 140.59C83.24 141.24 82.6 141.77 81.62 141.77C80.4 141.77 79.52 140.97 79.52 139.32L79.52 135.19L80.52 135.19L80.52 139.25C80.52 140.2 81.11 140.8 81.94 140.8ZM91.76 141.68L90.76 141.68L90.76 135.19L91.76 135.19L91.76 141.68ZM73.12 138.47C73.12 139.77 73.72 140.92 75.06 140.92C76.39 140.92 77 139.77 77 138.47C77 137.17 76.39 136 75.06 136C73.72 136 73.12 137.17 73.12 138.47ZM103.17 136C102.03 136 101.31 136.9 101.25 137.92L104.94 137.92C104.94 136.81 104.25 136 103.17 136Z" fill="#333335" fill-opacity="1.000000" fill-rule="evenodd"/>
			<rect id="Icon" width="14.000000" height="13.000000" transform="translate(19.000000 130.968750)" fill="#FFFFFF" fill-opacity="0"/>
			<g clip-path="url(#clip1_108)">
				<rect id="svg-452132931_252" width="14.000000" height="13.000000" transform="translate(19.000000 130.968750)" fill="#FFFFFF" fill-opacity="0"/>
				<g clip-path="url(#clip1_109)">
					<path id="Vector" d="M22.9 136.1L26.03 139.23L29.16 136.1" stroke="#333335" stroke-opacity="1.000000" stroke-width="0.782372" stroke-linejoin="round" stroke-linecap="round"/>
				</g>
			</g>
		</g>
		<rect id="Icon" width="49.000000" height="50.000000" transform="translate(228.000000 446.593750)" fill="#FFFFFF" fill-opacity="0"/>
		<g clip-path="url(#clip1_111)">
			<rect id="svg-1124482381_343" width="49.000000" height="50.000000" transform="translate(228.000000 446.593750)" fill="#FFFFFF" fill-opacity="0"/>
			<g clip-path="url(#clip1_112)">
				<path id="Vector" d="M252.7 447.38L252.7 447.38C266.1 447.38 276.96 458.24 276.96 471.64L276.96 471.64C276.96 485.03 266.1 495.89 252.7 495.89L252.7 495.89C239.31 495.89 228.45 485.03 228.45 471.64L228.45 471.64C228.45 458.24 239.31 447.38 252.7 447.38Z" fill="#05AA53" fill-opacity="1.000000" fill-rule="evenodd"/>
				<path id="Vector" d="M252.7 461.65L252.7 481.63M242.71 471.64L262.69 471.64" stroke="#FFFFFF" stroke-opacity="1.000000" stroke-width="1.564740" stroke-linejoin="round"/>
			</g>
		</g>
		<rect id="Icon" width="306.000000" height="36.000000" transform="translate(0.000000 2.593750)" fill="#FFFFFF" fill-opacity="0"/>
		<g clip-path="url(#clip1_115)">
			<rect id="svg-818331780_4937" width="306.000000" height="36.000000" transform="translate(0.000000 2.593750)" fill="#FFFFFF" fill-opacity="0"/>
			<g clip-path="url(#clip1_116)">
				<path id="Vector" d="M0 3.5L305.12 3.5L305.12 37.93L0 37.93L0 3.5Z" fill="#FFFFFF" fill-opacity="1.000000" fill-rule="evenodd"/>
				<g opacity="0.350000">
					<path id="Vector" d="M289.73 17.45C290.67 17.45 291.43 18.21 291.43 19.15L291.43 23.84C291.43 24.78 290.67 25.54 289.73 25.54L276.69 25.54C275.76 25.54 275 24.78 275 23.84L275 19.15C275 18.21 275.76 17.45 276.69 17.45L289.73 17.45Z" stroke="#000000" stroke-opacity="1.000000" stroke-width="0.782372"/>
				</g>
				<g opacity="0.400000">
					<path id="Vector" d="M292.6 19.93L292.6 23.06C293.23 22.79 293.64 22.18 293.64 21.5C293.64 20.81 293.23 20.2 292.6 19.93Z" fill="#000000" fill-opacity="1.000000" fill-rule="nonzero"/>
				</g>
				<path id="Vector" d="M276.17 19.67C276.17 19.09 276.64 18.63 277.22 18.63L289.21 18.63C289.79 18.63 290.26 19.09 290.26 19.67L290.26 23.32C290.26 23.9 289.79 24.36 289.21 24.36L277.22 24.36C276.64 24.36 276.17 23.9 276.17 23.32L276.17 19.67Z" fill="#000000" fill-opacity="1.000000" fill-rule="nonzero"/>
				<path id="Vector" d="M264.7 18.84C266.43 18.84 268.1 19.51 269.35 20.7C269.45 20.79 269.6 20.79 269.69 20.7L270.6 19.79C270.64 19.74 270.67 19.67 270.67 19.61C270.67 19.54 270.64 19.48 270.59 19.43C267.3 16.27 262.09 16.27 258.8 19.43C258.75 19.48 258.72 19.54 258.72 19.61C258.72 19.67 258.75 19.74 258.79 19.79L259.7 20.7C259.79 20.79 259.94 20.79 260.04 20.7C261.29 19.51 262.96 18.84 264.7 18.84ZM264.7 21.81C265.65 21.81 266.57 22.16 267.27 22.8C267.37 22.9 267.52 22.89 267.61 22.8L268.51 21.89C268.56 21.84 268.59 21.77 268.59 21.71C268.59 21.64 268.56 21.58 268.51 21.53C266.36 19.53 263.03 19.53 260.88 21.53C260.83 21.58 260.81 21.64 260.8 21.71C260.8 21.77 260.83 21.84 260.88 21.89L261.78 22.8C261.87 22.89 262.02 22.9 262.12 22.8C262.83 22.17 263.74 21.81 264.7 21.81ZM266.51 23.81C266.51 23.88 266.48 23.94 266.43 23.99L264.87 25.57C264.82 25.61 264.76 25.64 264.7 25.64C264.63 25.64 264.57 25.61 264.52 25.57L262.96 23.99C262.91 23.94 262.88 23.88 262.89 23.81C262.89 23.74 262.92 23.68 262.97 23.63C263.96 22.79 265.43 22.79 266.42 23.63C266.47 23.68 266.5 23.74 266.51 23.81Z" fill="#000000" fill-opacity="1.000000" fill-rule="evenodd"/>
				<path id="Vector" d="M254.01 17.32L253.22 17.32C252.79 17.32 252.44 17.67 252.44 18.1L252.44 24.89C252.44 25.32 252.79 25.67 253.22 25.67L254.01 25.67C254.44 25.67 254.79 25.32 254.79 24.89L254.79 18.1C254.79 17.67 254.44 17.32 254.01 17.32ZM249.57 19.15L250.35 19.15C250.79 19.15 251.14 19.5 251.14 19.93L251.14 24.89C251.14 25.32 250.79 25.67 250.35 25.67L249.57 25.67C249.14 25.67 248.79 25.32 248.79 24.89L248.79 19.93C248.79 19.5 249.14 19.15 249.57 19.15ZM246.7 20.97L245.92 20.97C245.49 20.97 245.14 21.32 245.14 21.76L245.14 24.89C245.14 25.32 245.49 25.67 245.92 25.67L246.7 25.67C247.14 25.67 247.49 25.32 247.49 24.89L247.49 21.76C247.49 21.32 247.14 20.97 246.7 20.97ZM243.05 22.54L242.27 22.54C241.84 22.54 241.49 22.89 241.49 23.32L241.49 24.89C241.49 25.32 241.84 25.67 242.27 25.67L243.05 25.67C243.48 25.67 243.83 25.32 243.83 24.89L243.83 23.32C243.83 22.89 243.48 22.54 243.05 22.54Z" fill="#000000" fill-opacity="1.000000" fill-rule="evenodd"/>
				<path id="Vector" d="M29.19 25.61C31.3 25.61 32.55 23.96 32.55 21.18C32.55 20.13 32.35 19.25 31.96 18.57C31.41 17.5 30.45 16.93 29.24 16.93C27.44 16.93 26.17 18.14 26.17 19.84C26.17 21.43 27.31 22.59 28.89 22.59C29.86 22.59 30.64 22.14 31.03 21.35L31.05 21.35C31.05 21.35 31.07 21.35 31.08 21.35C31.09 21.35 31.13 21.35 31.13 21.35C31.13 23.24 30.41 24.37 29.21 24.37C28.49 24.37 27.94 23.98 27.76 23.36L26.28 23.36C26.53 24.71 27.68 25.61 29.19 25.61ZM29.25 21.41C28.29 21.41 27.62 20.74 27.62 19.79C27.62 18.87 28.33 18.16 29.25 18.16C30.17 18.16 30.88 18.88 30.88 19.81C30.88 20.74 30.19 21.41 29.25 21.41Z" fill="#000000" fill-opacity="1.000000" fill-rule="nonzero"/>
				<path id="Vector" d="M34.96 25.53C35.51 25.53 35.88 25.14 35.88 24.62C35.88 24.1 35.51 23.72 34.96 23.72C34.43 23.72 34.05 24.1 34.05 24.62C34.05 25.14 34.43 25.53 34.96 25.53ZM34.96 21.23C35.51 21.23 35.88 20.85 35.88 20.33C35.88 19.81 35.51 19.42 34.96 19.42C34.43 19.42 34.05 19.81 34.05 20.33C34.05 20.85 34.43 21.23 34.96 21.23Z" fill="#000000" fill-opacity="1.000000" fill-rule="nonzero"/>
				<path id="Vector" d="M41.24 25.41L42.66 25.41L42.66 23.87L43.78 23.87L43.78 22.62L42.66 22.62L42.66 17.14L40.57 17.14C39.11 19.34 37.95 21.18 37.21 22.55L37.21 23.87L41.24 23.87L41.24 25.41ZM38.57 22.56C39.54 20.87 40.4 19.51 41.19 18.34L41.27 18.34L41.27 22.65L38.57 22.65L38.57 22.56Z" fill="#000000" fill-opacity="1.000000" fill-rule="nonzero"/>
				<path id="Vector" d="M46.93 25.41L48.41 25.41L48.41 17.14L46.94 17.14L44.77 18.65L44.77 20.07L46.83 18.63L46.93 18.63L46.93 25.41Z" fill="#000000" fill-opacity="1.000000" fill-rule="nonzero"/>
			</g>
		</g>
		<path id="Yesterday" d="M21.16 79.45L16.45 71.8L18.26 71.8L21.87 77.88L22.02 77.88L25.63 71.8L27.44 71.8L22.73 79.45L22.73 84.82L21.16 84.82L21.16 79.45ZM77.4 83.32C77.07 83.85 76.43 85.03 74.55 85.03C72.11 85.03 70.4 83.07 70.4 79.97C70.4 76.89 72.11 74.93 74.58 74.93C76.48 74.93 77.07 76.1 77.4 76.61L77.53 76.61L77.53 71.8L79.03 71.8L79.03 84.82L77.58 84.82L77.58 83.32L77.4 83.32ZM49.84 75.06L51.92 75.06L51.92 76.33L49.84 76.33L49.84 82.02C49.84 83.3 50.47 83.5 51.13 83.5C51.46 83.5 51.67 83.45 51.8 83.42L52.1 84.77C51.9 84.85 51.54 84.95 50.98 84.95C49.71 84.95 48.34 84.13 48.34 82.43L48.34 76.33L46.86 76.33L46.86 75.06L48.34 75.06L48.34 72.72L49.84 72.72L49.84 75.06ZM66.01 84.82L64.51 84.82L64.51 75.06L65.96 75.06L65.96 76.53L66.06 76.53C66.42 75.56 67.43 74.91 68.6 74.91C68.83 74.91 69.22 74.92 69.39 74.93L69.39 76.46C69.29 76.43 68.87 76.36 68.48 76.36C67.05 76.36 66.01 77.32 66.01 78.64L66.01 84.82ZM35.88 82.56C35.42 84.03 33.97 85.03 31.99 85.03C29.17 85.03 27.43 83.02 27.43 80.01C27.43 77.02 29.19 74.93 31.84 74.93C33.87 74.93 36.03 76.18 36.03 79.81L36.03 80.45L28.94 80.45C29.01 82.54 30.23 83.68 31.99 83.68C33.16 83.68 34.05 83.17 34.43 82.15L35.88 82.56ZM41.78 74.93C43.71 74.93 44.76 75.86 45.24 77.24L43.89 77.62C43.63 76.95 43.09 76.22 41.78 76.22C40.58 76.22 39.69 76.84 39.69 77.68C39.69 78.43 40.22 78.81 41.37 79.1L42.82 79.45C44.56 79.88 45.41 80.74 45.41 82.1C45.41 83.79 43.87 85.03 41.6 85.03C39.6 85.03 38.24 84.14 37.89 82.48L39.31 82.12C39.58 83.17 40.35 83.7 41.57 83.7C42.97 83.7 43.86 83.02 43.86 82.18C43.86 81.5 43.4 81.03 42.41 80.8L40.79 80.42C38.99 80 38.19 79.1 38.19 77.75C38.19 76.1 39.72 74.93 41.78 74.93ZM62.07 82.56C61.61 84.03 60.16 85.03 58.18 85.03C55.35 85.03 53.62 83.02 53.62 80.01C53.62 77.02 55.38 74.93 58.02 74.93C60.06 74.93 62.22 76.18 62.22 79.81L62.22 80.45L55.13 80.45C55.2 82.54 56.42 83.68 58.18 83.68C59.35 83.68 60.24 83.17 60.62 82.15L62.07 82.56ZM87.75 83.5C87.44 84.13 86.55 85.05 84.85 85.05C82.99 85.05 81.52 83.96 81.52 82.05C81.52 79.81 83.5 79.41 85.31 79.17C87.09 78.95 87.82 79.01 87.82 78.29L87.82 78.24C87.82 76.99 87.14 76.25 85.76 76.25C84.33 76.25 83.55 77.02 83.22 77.73L81.8 77.22C82.56 75.44 84.24 74.93 85.71 74.93C86.96 74.93 89.33 75.29 89.33 78.39L89.33 84.82L87.82 84.82L87.82 83.5L87.75 83.5ZM95.55 86.25C94.99 87.76 94.03 88.48 92.68 88.48C92.17 88.48 91.74 88.38 91.59 88.3L91.97 86.98C93.06 87.26 93.74 87.12 94.28 85.63L94.56 84.87L90.95 75.06L92.58 75.06L95.27 82.84L95.38 82.84L98.07 75.06L99.7 75.06L95.55 86.25ZM31.84 76.28C30.12 76.28 29.04 77.63 28.94 79.15L34.51 79.15C34.51 77.5 33.46 76.28 31.84 76.28ZM58.02 76.28C56.31 76.28 55.23 77.63 55.13 79.15L60.69 79.15C60.69 77.5 59.65 76.28 58.02 76.28ZM71.91 79.94C71.91 82.02 72.87 83.68 74.75 83.68C76.56 83.68 77.55 82.15 77.55 79.94C77.55 77.75 76.58 76.28 74.75 76.28C72.85 76.28 71.91 77.88 71.91 79.94ZM83.02 82.12C83.02 83.17 83.88 83.7 85.08 83.7C86.86 83.7 87.82 82.51 87.82 81.29L87.82 79.91C87.57 80.22 85.86 80.4 85.23 80.47C84.06 80.63 83.02 80.98 83.02 82.12Z" fill="#DADADA" fill-opacity="1.000000" fill-rule="evenodd"/>
		<path id="Today" d="M131.36 73.2L127.26 73.2L127.26 71.8L137.02 71.8L137.02 73.2L132.93 73.2L132.93 84.82L131.36 84.82L131.36 73.2ZM155.05 83.32C154.72 83.85 154.08 85.03 152.2 85.03C149.76 85.03 148.06 83.07 148.06 79.97C148.06 76.89 149.76 74.93 152.23 74.93C154.14 74.93 154.72 76.1 155.05 76.61L155.18 76.61L155.18 71.8L156.68 71.8L156.68 84.82L155.23 84.82L155.23 83.32L155.05 83.32ZM146.23 79.99C146.23 83.02 144.45 85.03 141.8 85.03C139.16 85.03 137.38 83.02 137.38 79.99C137.38 76.94 139.16 74.93 141.8 74.93C144.45 74.93 146.23 76.94 146.23 79.99ZM165.4 83.5C165.09 84.13 164.2 85.05 162.5 85.05C160.64 85.05 159.17 83.96 159.17 82.05C159.17 79.81 161.15 79.41 162.96 79.17C164.74 78.95 165.47 79.01 165.47 78.29L165.47 78.24C165.47 76.99 164.8 76.25 163.42 76.25C161.99 76.25 161.2 77.02 160.87 77.73L159.45 77.22C160.21 75.44 161.89 74.93 163.36 74.93C164.61 74.93 166.98 75.29 166.98 78.39L166.98 84.82L165.47 84.82L165.47 83.5L165.4 83.5ZM173.21 86.25C172.64 87.76 171.69 88.48 170.33 88.48C169.82 88.48 169.39 88.38 169.24 88.3L169.62 86.98C170.72 87.26 171.39 87.12 171.93 85.63L172.21 84.87L168.6 75.06L170.23 75.06L172.93 82.84L173.03 82.84L175.72 75.06L177.35 75.06L173.21 86.25ZM138.88 79.99C138.88 81.95 139.79 83.68 141.8 83.68C143.81 83.68 144.73 81.95 144.73 79.99C144.73 78.03 143.81 76.28 141.8 76.28C139.79 76.28 138.88 78.03 138.88 79.99ZM149.56 79.94C149.56 82.02 150.53 83.68 152.4 83.68C154.21 83.68 155.2 82.15 155.2 79.94C155.2 77.75 154.24 76.28 152.4 76.28C150.5 76.28 149.56 77.88 149.56 79.94ZM160.67 82.12C160.67 83.17 161.54 83.7 162.73 83.7C164.51 83.7 165.47 82.51 165.47 81.29L165.47 79.91C165.22 80.22 163.52 80.4 162.88 80.47C161.71 80.63 160.67 80.98 160.67 82.12Z" fill="#333335" fill-opacity="1.000000" fill-rule="evenodd"/>
		<path id="Tomorrow" d="M208.46 73.2L204.36 73.2L204.36 71.8L214.12 71.8L214.12 73.2L210.03 73.2L210.03 84.82L208.46 84.82L208.46 73.2ZM253.35 84.82L251.86 84.82L251.86 75.06L253.31 75.06L253.31 76.53L253.41 76.53C253.77 75.56 254.78 74.91 255.95 74.91C256.17 74.91 256.57 74.92 256.74 74.93L256.74 76.46C256.64 76.43 256.22 76.36 255.82 76.36C254.4 76.36 253.35 77.32 253.35 78.64L253.35 84.82ZM260.01 84.82L258.52 84.82L258.52 75.06L259.97 75.06L259.97 76.53L260.07 76.53C260.43 75.56 261.44 74.91 262.61 74.91C262.83 74.91 263.23 74.92 263.4 74.93L263.4 76.46C263.3 76.43 262.88 76.36 262.49 76.36C261.06 76.36 260.01 77.32 260.01 78.64L260.01 84.82ZM223.33 79.99C223.33 83.02 221.55 85.03 218.9 85.03C216.26 85.03 214.48 83.02 214.48 79.99C214.48 76.94 216.26 74.93 218.9 74.93C221.55 74.93 223.33 76.94 223.33 79.99ZM227.11 84.82L225.62 84.82L225.62 75.06L227.07 75.06L227.07 76.58L227.19 76.58C227.6 75.54 228.54 74.93 229.81 74.93C231.1 74.93 231.95 75.54 232.43 76.58L232.53 76.58C233.04 75.57 234.06 74.93 235.46 74.93C237.2 74.93 238.43 75.99 238.43 78.29L238.43 84.82L236.93 84.82L236.93 78.29C236.93 76.85 236.02 76.28 234.95 76.28C233.57 76.28 232.79 77.2 232.79 78.46L232.79 84.82L231.26 84.82L231.26 78.13C231.26 77.02 230.47 76.28 229.33 76.28C228.16 76.28 227.11 77.29 227.11 78.72L227.11 84.82ZM249.57 79.99C249.57 83.02 247.79 85.03 245.14 85.03C242.5 85.03 240.72 83.02 240.72 79.99C240.72 76.94 242.5 74.93 245.14 74.93C247.79 74.93 249.57 76.94 249.57 79.99ZM273.26 79.99C273.26 83.02 271.49 85.03 268.84 85.03C266.2 85.03 264.41 83.02 264.41 79.99C264.41 76.94 266.2 74.93 268.84 74.93C271.49 74.93 273.26 76.94 273.26 79.99ZM278.91 84.82L277.43 84.82L274.46 75.06L276.03 75.06L278.15 82.53L278.25 82.53L280.33 75.06L281.93 75.06L283.99 82.51L284.1 82.51L286.21 75.06L287.78 75.06L284.81 84.82L283.33 84.82L281.2 77.32L281.05 77.32L278.91 84.82ZM215.98 79.99C215.98 81.95 216.89 83.68 218.9 83.68C220.91 83.68 221.83 81.95 221.83 79.99C221.83 78.03 220.91 76.28 218.9 76.28C216.89 76.28 215.98 78.03 215.98 79.99ZM242.22 79.99C242.22 81.95 243.13 83.68 245.14 83.68C247.15 83.68 248.07 81.95 248.07 79.99C248.07 78.03 247.15 76.28 245.14 76.28C243.13 76.28 242.22 78.03 242.22 79.99ZM265.92 79.99C265.92 81.95 266.83 83.68 268.84 83.68C270.85 83.68 271.76 81.95 271.76 79.99C271.76 78.03 270.85 76.28 268.84 76.28C266.83 76.28 265.92 78.03 265.92 79.99Z" fill="#DADADA" fill-opacity="1.000000" fill-rule="evenodd"/>
		<rect id="Icon" width="306.000000" height="51.000000" transform="translate(-0.421875 564.593750)" fill="#FFFFFF" fill-opacity="0"/>
		<g clip-path="url(#clip1_134)">
			<rect id="svg530082018_2245" width="306.000000" height="51.000000" transform="translate(-0.421875 564.593750)" fill="#FFFFFF" fill-opacity="0"/>
			<g clip-path="url(#clip1_135)">
				<path id="Vector" d="M-0.43 564.84L304.7 564.84L304.7 614.91L-0.43 614.91L-0.43 564.84Z" fill="#FFFFFF" fill-opacity="1.000000" fill-rule="nonzero"/>
				<mask id="mask1_138" mask-type="alpha" maskUnits="userSpaceOnUse" x="-0.421875" y="564.843994" width="305.125000" height="50.071899">
					<path id="Vector" d="M-0.43 564.84L304.7 564.84L304.7 614.91L-0.43 614.91L-0.43 564.84Z" fill="#FFFFFF" fill-opacity="1.000000" fill-rule="nonzero"/>
				</mask>
				<g mask="url(#mask1_138)">
					<path id="Vector" d="M-0.43 565.62L304.7 565.62L304.7 564.06L-0.43 564.06L-0.43 565.62Z" fill="#F4F4F4" fill-opacity="1.000000" fill-rule="nonzero"/>
				</g>
				<path id="Vector" d="M82.5 582.05L89.55 587.53L89.55 596.13C89.55 596.55 89.38 596.95 89.09 597.24C88.79 597.53 88.4 597.7 87.98 597.7L77.03 597.7C76.61 597.7 76.22 597.53 75.92 597.24C75.63 596.95 75.46 596.55 75.46 596.13L75.46 587.53L82.5 582.05Z" stroke="#333335" stroke-opacity="1.000000" stroke-width="1.173560" stroke-linejoin="round"/>
				<path id="Vector" d="M80.16 597.7L80.16 589.88L84.85 589.88L84.85 597.7" stroke="#333335" stroke-opacity="1.000000" stroke-width="1.173560" stroke-linejoin="round" stroke-linecap="round"/>
				<g opacity="0.300000">
					<path id="Vector" d="M149.01 582.83C149.84 582.83 150.63 583.16 151.22 583.75C151.81 584.34 152.14 585.13 152.14 585.96L152.14 596.92C152.14 596.29 151.89 595.7 151.45 595.26C151.01 594.82 150.41 594.57 149.79 594.57L144.31 594.57L144.31 582.83L149.01 582.83Z" stroke="#333335" stroke-opacity="1.000000" stroke-width="1.173560" stroke-linejoin="round"/>
					<path id="Vector" d="M155.27 582.83C154.44 582.83 153.64 583.16 153.05 583.75C152.47 584.34 152.14 585.13 152.14 585.96L152.14 596.92C152.14 596.29 152.38 595.7 152.82 595.26C153.26 594.82 153.86 594.57 154.48 594.57L159.96 594.57L159.96 582.83L155.27 582.83Z" stroke="#333335" stroke-opacity="1.000000" stroke-width="1.173560" stroke-linejoin="round"/>
				</g>
				<g opacity="0.300000">
					<path id="Vector" d="M228.03 596.92L228.03 595.35C228.03 594.52 227.7 593.73 227.11 593.14C226.52 592.55 225.73 592.22 224.9 592.22L218.64 592.22C217.81 592.22 217.01 592.55 216.42 593.14C215.84 593.73 215.51 594.52 215.51 595.35L215.51 596.92" stroke="#333335" stroke-opacity="1.000000" stroke-width="1.173560" stroke-linejoin="round" stroke-linecap="round"/>
					<path id="Vector" d="M224.9 585.96C224.9 584.24 223.5 582.83 221.77 582.83C220.04 582.83 218.64 584.24 218.64 585.96C218.64 587.69 220.04 589.09 221.77 589.09C223.5 589.09 224.9 587.69 224.9 585.96Z" stroke="#333335" stroke-opacity="1.000000" stroke-width="1.173560" stroke-linejoin="round"/>
				</g>
			</g>
		</g>
	</g>
</svg>
